<svg width="25" height="20" xmlns="http://www.w3.org/2000/svg"><path d="M5.528 10.637l9.419-9.429c.33-.332.79-.618 1.343-.857C16.86.11 17.366 0 17.826 0h5.482c.46 0 .855.175 1.186.507.331.332.506.73.506 1.19v5.48c0 .461-.11.987-.35 1.54-.239.573-.505 1.015-.855 1.348l-9.419 9.446a1.6 1.6 0 01-1.186.48c-.46 0-.856-.157-1.205-.48l-6.457-6.476a1.724 1.724 0 01-.478-1.19c0-.461.156-.858.478-1.208zm15.26-4.714c.46 0 .855-.157 1.186-.49.331-.332.487-.728.487-1.19 0-.46-.156-.857-.487-1.19a1.608 1.608 0 00-1.187-.488c-.46 0-.855.156-1.186.489-.331.332-.478.728-.478 1.19-.028.47.147.857.478 1.19.33.332.726.489 1.186.489zM9.896 1.208c.331-.332.791-.618 1.343-.857C11.81.11 12.316 0 12.776 0h2.962c-.46 0-.985.11-1.536.35-.57.24-1.012.508-1.343.858l-9.419 9.42a1.69 1.69 0 00-.487 1.208c0 .461.156.858.487 1.19l6.172 6.208a4.735 4.735 0 01-.7.59c-.192.13-.46.176-.772.176a1.68 1.68 0 01-1.205-.489L.478 13.017A1.615 1.615 0 010 11.827c0-.462.156-.84.478-1.2l9.419-9.419z"/></svg>