<svg width="12" height="12" xmlns="http://www.w3.org/2000/svg"><g><path d="M6.012 12A6.004 6.004 0 01.166 4.602a6.006 6.006 0 019.158-3.597.469.469 0 11-.52.781A5.066 5.066 0 001.08 4.821a5.066 5.066 0 003.742 6.099c1.315.314 2.673.099 3.823-.608a5.027 5.027 0 002.275-3.135 5.033 5.033 0 00.053-2.116.47.47 0 01.922-.174 5.965 5.965 0 01-.062 2.509 5.96 5.96 0 01-2.696 3.716A5.954 5.954 0 016.012 12z"/><path d="M6.03 8.467a.467.467 0 01-.327-.133L2.957 5.668a.469.469 0 11.654-.674l2.397 2.329 5.127-5.612a.47.47 0 01.693.633l-5.452 5.97a.472.472 0 01-.333.152l-.014.001z"/></g></svg>