<svg width="16" height="16" xmlns="http://www.w3.org/2000/svg"><g><path d="M4.931 15.693h-2.56a2.365 2.365 0 01-2.358-2.358V2.362A2.365 2.365 0 012.371.004h10.973a2.365 2.365 0 012.358 2.358v2.552c0 .37-.303.673-.674.673a.676.676 0 01-.674-.673V2.362c0-.556-.454-1.01-1.01-1.01H2.37c-.555 0-1.01.454-1.01 1.01v10.973c0 .556.455 1.01 1.01 1.01h2.552c.37 0 .674.303.674.674 0 .37-.295.674-.666.674zm2.636-.16a.712.712 0 01-.48-.194.676.676 0 010-.952l7.427-7.435a.676.676 0 01.952 0 .676.676 0 010 .951L8.04 15.331a.65.65 0 01-.472.202z"/><path d="M12.308 5.082H3.416a.676.676 0 01-.674-.674c0-.37.303-.673.674-.673h8.9c.371 0 .674.303.674.673 0 .37-.303.674-.682.674zM8.603 9.655H3.416a.676.676 0 01-.674-.674c0-.37.303-.674.674-.674H8.61c.37 0 .674.304.674.674 0 .37-.303.674-.682.674z"/></g></svg>