<svg width="12" height="12" xmlns="http://www.w3.org/2000/svg"><path d="M11.824 7.628L5.214 3.77c-.242-.14-.396-.033-.345.24l1.404 7.46c.051.272.225.31.387.083 0 0 .898-1.263 1.634-2.034l1.413 2.064c.134.198.408.25.606.115l.474-.321a.433.433 0 00.115-.602L9.489 8.712c.944-.384 2.279-.708 2.279-.708.272-.065.297-.235.056-.376zM4.86 10.804A5.038 5.038 0 01.872 5.835C.901 3.065 3.191.837 5.977.867c2.634.029 4.782 2.072 4.978 4.638v.008a.436.436 0 00.381.437h.018a.436.436 0 00.475-.427v-.006A5.91 5.91 0 005.987 0a5.91 5.91 0 00-4.206 1.68 5.87 5.87 0 00-.334 8.07c.84.965 1.97 1.631 3.221 1.9a.436.436 0 00.493-.427.437.437 0 00-.302-.419z"/></svg>