<svg width="24" height="20" xmlns="http://www.w3.org/2000/svg"><g><path d="M16.059 12.918a8.92 8.92 0 00-5.111-3.355 4.99 4.99 0 002.933-4.554c0-2.754-2.22-4.987-4.956-4.987-.999 0-1.928.297-2.707.808a1.307 1.307 0 00-.597-.143c-.73 0-1.322.595-1.322 1.33 0 .266.078.514.212.722a4.987 4.987 0 00-.542 2.27 4.99 4.99 0 002.933 4.554C3.052 10.46.159 13.866.01 17.975h15.193a4.3 4.3 0 01-.464-1.951c0-1.222.506-2.324 1.32-3.106z"/><path d="M21.001 11.335a7.363 7.363 0 00-2.943-1.74 4.123 4.123 0 001.937-3.502c0-2.276-1.832-4.12-4.094-4.12-.602 0-1.175.132-1.69.367.436.821.683 1.76.683 2.756 0 1.538-.59 2.938-1.553 3.982a.4.4 0 00-.086.091 3.054 3.054 0 01-.035.037l.01.008a.39.39 0 00.295.561 9.76 9.76 0 013.109 2.678 4.223 4.223 0 012.368-.722c.549 0 1.073.103 1.554.294l.264.177c.225.15.415.31.508.31a.389.389 0 00.387-.391c0-.15-.399-.553-.714-.786zm2.3 4.932c.01.049.02.098.027.147h-.068c.018-.049.031-.097.041-.147zM19.002 12.511c-1.926 0-3.488 1.573-3.488 3.513s1.562 3.512 3.488 3.512c1.927 0 3.489-1.572 3.489-3.512s-1.562-3.513-3.489-3.513zm1.937 3.903h-1.55v1.56a.389.389 0 01-.387.392.391.391 0 01-.387-.392v-1.56h-1.55a.391.391 0 010-.78h1.55v-1.56c0-.217.171-.392.387-.392a.39.39 0 01.388.391v1.56h1.55a.391.391 0 010 .78z"/></g></svg>