<svg width="20" height="20" xmlns="http://www.w3.org/2000/svg"><path d="M18.237 10c0-1.17.734-2.16 1.763-2.556a10.256 10.256 0 00-1.12-2.707 2.735 2.735 0 01-3.614-3.616A10.302 10.302 0 0012.556 0 2.743 2.743 0 0110 1.763C8.83 1.763 7.84 1.03 7.444 0 6.48.246 5.571.625 4.737 1.12a2.738 2.738 0 01-.56 3.054 2.743 2.743 0 01-3.054.563A10.187 10.187 0 000 7.444 2.743 2.743 0 011.763 10c0 1.17-.734 2.16-1.763 2.556.246.964.625 1.873 1.12 2.707a2.735 2.735 0 013.614 3.616c.837.496 1.746.875 2.71 1.121A2.743 2.743 0 0110 18.237c1.17 0 2.16.734 2.556 1.763a10.256 10.256 0 002.707-1.12 2.738 2.738 0 01.56-3.054 2.743 2.743 0 013.054-.563c.498-.834.877-1.743 1.123-2.707A2.738 2.738 0 0118.237 10zM10 12.746a2.746 2.746 0 010-5.492 2.746 2.746 0 010 5.492z"/></svg>