<svg width="20" height="20" xmlns="http://www.w3.org/2000/svg"><path d="M16.393 11.913a3.65 3.65 0 00-2.79.367 3.672 3.672 0 00-1.055.916l-5.324-2.662c.081-.305.129-.621.129-.952 0-.331-.048-.647-.129-.952l5.324-2.662A3.672 3.672 0 0016.39 7.25a3.648 3.648 0 002.231-1.713c.49-.844.622-1.849.368-2.79A3.648 3.648 0 0017.276.515a3.665 3.665 0 00-2.79-.368 3.648 3.648 0 00-2.232 1.713 3.665 3.665 0 00-.368 2.79v.004L6.563 7.317a3.652 3.652 0 00-2.887-1.412A3.683 3.683 0 000 9.582a3.683 3.683 0 003.676 3.676 3.672 3.672 0 002.89-1.408l5.324 2.662v.004a3.65 3.65 0 00.367 2.79 3.658 3.658 0 003.188 1.838c.636 0 1.265-.165 1.83-.492a3.658 3.658 0 001.714-2.232 3.65 3.65 0 00-.368-2.79 3.634 3.634 0 00-2.228-1.717z"/></svg>