<?xml version="1.0" encoding="UTF-8"?>
<svg width="22px" height="24px" viewBox="0 0 22 24" version="1.1" xmlns="http://www.w3.org/2000/svg" xmlns:xlink="http://www.w3.org/1999/xlink">
    <desc>Created with Sketch.</desc>
    <g id="页面-1" stroke="none" stroke-width="1" fill="none" fill-rule="evenodd">
        <g id="投票下拉菜单" transform="translate(-1451.000000, -229.000000)">
            <g id="daot" transform="translate(1452.000000, 231.000000)">
                <path d="M11.5,-0.288675135 L18.160254,3.55662433 C19.0884573,4.09252271 19.660254,5.08290377 19.660254,6.15470054 L19.660254,13.8452995 C19.660254,14.9170962 19.0884573,15.9074773 18.160254,16.4433757 L11.5,20.2886751 C10.5717968,20.8245735 9.42820323,20.8245735 8.5,20.2886751 L1.83974596,16.4433757 C0.911542732,15.9074773 0.339745962,14.9170962 0.339745962,13.8452995 L0.339745962,6.15470054 C0.339745962,5.08290377 0.911542732,4.09252271 1.83974596,3.55662433 L8.5,-0.288675135 C9.42820323,-0.824573519 10.5717968,-0.824573519 11.5,-0.288675135 Z" id="多边形" stroke="#FFFFFF" stroke-width="2" fill="#FCE812"></path>
                <g id="编组" transform="translate(6.666667, 4.166667)" fill="#F7B500" fill-rule="nonzero">
                    <path d="M2.39966398,0.245752688 L0.0283198925,6.65489247 C-0.0145693859,6.77043399 0.00183156837,6.899654 0.072225608,7.00081729 C0.142619648,7.10198058 0.258085653,7.1622666 0.381330645,7.1622043 L1.93901882,7.1622043 C2.06334295,7.1622539 2.17962061,7.22369938 2.24970835,7.32638433 C2.3197961,7.42906928 2.33464916,7.55974227 2.28939516,7.67553763 L0.97219086,11.0404301 C0.904046112,11.2128141 0.971571437,11.4091484 1.13133365,11.5031482 C1.29109587,11.5971481 1.49551452,11.5608184 1.61310484,11.4175269 L6.72686828,5.23005376 C6.8199094,5.11775745 6.83969947,4.96181775 6.77765876,4.82984024 C6.71561805,4.69786274 6.58291581,4.61360745 6.43708333,4.61360215 L4.99643817,4.61360215 C4.85482544,4.61358331 4.72521125,4.53407086 4.66102361,4.40784046 C4.59683596,4.28161006 4.60894225,4.13003333 4.69235215,4.0155914 L7.18563172,0.598387097 C7.26922192,0.483995597 7.28148558,0.332351911 7.21736348,0.20601469 C7.15324138,0.0796774691 7.02360032,3.55271368e-15 6.88192204,3.55271368e-15 L2.75229839,3.55271368e-15 C2.59493448,0.000136161914 2.45426922,0.0981664856 2.39966398,0.245752688 Z" id="路径"></path>
                </g>
            </g>
        </g>
    </g>
</svg>