<svg width="17" height="20" xmlns="http://www.w3.org/2000/svg"><g><path d="M11.673 1.667H5.007c-.5 0-.834-.334-.834-.834 0-.5.334-.833.834-.833h6.666c.5 0 .834.333.834.833 0 .5-.334.834-.834.834M12.257 15.167a.9.9 0 01-.584.25.9.9 0 01-.583-.25l-3.5-3.5c-.167-.167-.25-.417-.25-.667V6c0-.5.333-.833.833-.833.5 0 .834.333.834.833v4.75l3.25 3.25a.806.806 0 010 1.167M8.34 3.333c-4.583 0-8.333 3.75-8.333 8.334C.007 16.25 3.757 20 8.34 20s8.333-3.75 8.333-8.333c0-4.584-3.75-8.334-8.333-8.334"/></g></svg>