<svg t="1584013652589" class="icon" viewBox="0 0 1024 1024" version="1.1" xmlns="http://www.w3.org/2000/svg" p-id="1438" width="200" height="200"><path d="M658.432 486.4c0 31.232-23.04 56.832-52.224 56.832-28.672 0-52.224-25.6-52.224-56.832s23.04-56.832 52.224-56.832c29.184 0 52.224 25.6 52.224 56.832z m-239.104-56.832c-29.184 0-52.224 25.6-52.224 56.832s23.552 56.832 52.224 56.832c29.184 0 52.224-25.6 52.224-56.832 0.512-31.232-23.04-56.832-52.224-56.832zM960 105.472V1024c-128.988-113.988-87.736-76.256-237.568-215.552l27.136 94.72H168.96C111.104 903.168 64 856.064 64 797.696V105.472C64 47.104 111.104 0 168.96 0h686.08C912.896 0 960 47.104 960 105.472z m-145.92 485.376c0-164.864-73.728-298.496-73.728-298.496-73.728-55.296-143.872-53.76-143.872-53.76l-7.168 8.192c87.04 26.624 127.488 65.024 127.488 65.024-121.622-66.658-264.488-66.67-382.464-14.848-18.944 8.704-30.208 14.848-30.208 14.848s42.496-40.448 134.656-67.072l-5.12-6.144s-70.144-1.536-143.872 53.76c0 0-73.728 133.632-73.728 298.496 0 0 43.008 74.24 156.16 77.824 0 0 18.944-23.04 34.304-42.496-65.024-19.456-89.6-60.416-89.6-60.416 7.532 5.272 19.952 12.106 20.992 12.8 86.42 48.396 209.176 64.252 319.488 17.92 17.92-6.656 37.888-16.384 58.88-30.208 0 0-25.6 41.984-92.672 60.928 15.36 19.456 33.792 41.472 33.792 41.472 113.152-3.584 156.672-77.824 156.672-77.824z" fill="" p-id="1439"></path></svg>