<?xml version="1.0" encoding="UTF-8"?>
<svg width="145px" height="40px" viewBox="0 0 145 40" version="1.1" xmlns="http://www.w3.org/2000/svg" xmlns:xlink="http://www.w3.org/1999/xlink">
    <g id="页面-1" stroke="none" stroke-width="1" fill="none" fill-rule="evenodd">
        <g id="注册&amp;登录" transform="translate(-887.000000, -591.000000)" fill="#FFFFFF" fill-rule="nonzero">
            <g id="github" transform="translate(887.000000, 591.000000)">
                <g id="github-2">
                    <path d="M33.4091637,6.81888019 C35.0066774,3.86465145 33.1809474,0 33.1809474,0 C29.0730549,0 26.1048083,2.72698038 26.1048083,2.72698038 C24.5072945,1.81798692 19.2568854,1.81798692 19.2568854,1.81798692 C19.2568854,1.81798692 14.0064763,1.81798692 12.4089626,2.72698038 C12.4089626,2.72698038 9.44215128,0 5.33282343,0 C5.33282343,0 3.50709342,3.86322221 5.10460718,6.81888019 C5.10460718,6.81888019 1.45314715,10.2276057 2.82244466,17.5009826 C4.1099288,24.3355844 10.1268,26.1378497 14.0064763,26.1378497 C14.0064763,26.1378497 12.4089626,27.5013399 12.6371788,29.7738236 C12.6371788,29.7738236 10.3550163,31.1373138 8.07285377,30.2283203 C5.79069126,29.3193268 4.64961,27.0468432 4.64961,27.0468432 C4.64961,27.0468432 2.36744748,24.0926144 0.085284966,25.2288563 C0.085284966,25.2288563 -0.599363789,25.9106014 1.91101498,27.0468432 C1.91101498,27.0468432 3.73674499,29.7738236 4.42139375,31.3645621 C5.1060425,32.9553007 8.75750253,34.3187909 12.4103979,33.4097974 L12.4103979,38.6365098 C12.4103979,38.6365098 12.4103979,39.0910065 11.4975329,39.3182549 C10.5846679,39.5455033 10.5846679,40 11.0411004,40 L27.4755411,40 C27.9319736,40 27.9319736,39.5455033 27.0191086,39.3182549 C26.1062436,39.0910065 26.1062436,38.6365098 26.1062436,38.6365098 L26.1062436,33.4097974 C26.1062436,33.4097974 26.1263381,30.6842463 26.1062436,29.7738236 C26.0560073,27.489906 24.5087299,26.1378497 24.5087299,26.1378497 C28.3884061,26.1378497 34.4052774,24.3355844 35.6927615,17.5009826 C37.062059,10.2276057 33.410599,6.81888019 33.410599,6.81888019 L33.4091637,6.81888019 Z" id="路径"></path>
                </g>
                <g id="GitHub" transform="translate(49.000000, 7.000000)">
                    <path d="M18.469218,11.1285604 L10.4026622,11.1285604 C10.202995,11.1285604 10.0232945,11.2886836 10.0232945,11.508853 L10.0232945,15.4518861 C10.0232945,15.65204 10.1830283,15.8321786 10.4026622,15.8321786 L13.5374376,15.8321786 L13.5374376,20.7359507 C13.5374376,20.7359507 12.8386023,20.9761355 10.8818636,20.9761355 C8.58569054,20.9761355 5.37104825,20.1354888 5.37104825,13.0500385 C5.37104825,5.96458817 8.72545757,5.02386452 11.860233,5.02386452 C14.5757072,5.02386452 15.7537438,5.50423405 16.4925125,5.74441877 C16.7321131,5.82448037 16.9517471,5.58429559 16.9517471,5.36412624 L17.8502496,1.54118552 C17.8502496,1.44110855 17.8103162,1.32101615 17.7104825,1.24095458 C17.4109817,1.04080062 15.5740433,0 10.9018303,0 C5.51081531,0 0,2.30177058 0,13.330254 C0,24.3587375 6.30948418,26 11.640599,26 C16.0532446,26 18.7287853,24.1185527 18.7287853,24.1185527 C18.8485857,24.0585065 18.8485857,23.8983834 18.8485857,23.8383372 L18.8485857,11.508853 C18.8485857,11.2886836 18.6688852,11.1285604 18.469218,11.1285604 Z M60,1.32101618 C60,1.12086221 59.8402662,0.940723621 59.6206323,0.940723621 L55.0881864,0.940723621 C54.8885191,0.940723621 54.7088186,1.1008468 54.7088186,1.32101618 L54.7088186,10.1077752 L47.640599,10.1077752 L47.640599,1.32101618 C47.640599,1.12086221 47.4808652,0.940723621 47.2612313,0.940723621 L42.7287854,0.940723621 C42.5291181,0.940723621 42.3494176,1.1008468 42.3494176,1.32101618 L42.3494176,25.1193226 C42.3494176,25.3194765 42.5091514,25.4996151 42.7287854,25.4996151 L47.2612313,25.4996151 C47.4608985,25.4996151 47.640599,25.3194765 47.640599,25.1193226 L47.640599,14.9314858 L54.7088186,14.9314858 L54.6888519,25.1193226 C54.6888519,25.3194765 54.8485857,25.4996151 55.0682197,25.4996151 L59.6206323,25.4996151 C59.8202995,25.4996151 60,25.3194765 60,25.1193226 L60,1.32101618 L60,1.32101618 Z" id="形状"></path>
                    <path d="M27,4.08590491 C27,2.37614677 25.6484642,1 23.9897611,1 C22.331058,1 21,2.3761468 21,4.08590491 C21,5.79566305 22.3515358,7.17180985 23.9897611,7.17180985 C25.6484642,7.17180985 27,5.79566305 27,4.08590491 Z M26.672355,20.3911593 L26.672355,8.94412012 C26.672355,8.73561302 26.5085324,8.54795662 26.2832765,8.54795662 L21.6348123,8.54795662 C21.4300341,8.54795662 21.225256,8.77731443 21.225256,8.98582152 L21.225256,25.3744787 C21.225256,25.854045 21.5119454,26 21.9010239,26 L26.0784983,26 C26.5290102,26 26.6518771,25.7706422 26.6518771,25.3744787 C26.672355,24.498749 26.672355,21.058382 26.672355,20.3911593 Z" id="形状"></path>
                    <path d="M77.4659763,8.81374902 L73.0059172,8.81374902 C72.8076923,8.81374902 72.6292899,8.99360513 72.6292899,9.19344526 L72.6292899,20.8441247 C72.6292899,20.8441247 71.4994083,21.6834532 69.8739645,21.6834532 C68.2683432,21.6834532 67.8322485,20.9440448 67.8322485,19.3453237 L67.8322485,9.19344526 C67.8322485,8.99360513 67.6736686,8.81374902 67.4556213,8.81374902 L62.9162722,8.81374902 C62.7180473,8.81374902 62.539645,8.99360513 62.539645,9.19344526 L62.539645,20.1247002 C62.539645,24.8409273 65.156213,26 68.7440828,26 C71.6976331,26 74.0763314,24.3613109 74.0763314,24.361311 C74.0763314,24.361311 74.1952663,25.2206235 74.2349112,25.3205436 C74.2943787,25.4204636 74.4133136,25.5203837 74.5718935,25.5203837 L77.4659763,25.5003997 C77.6642012,25.5003997 77.8426036,25.3205436 77.8426036,25.1207034 L77.8426036,9.17346124 C77.8426036,8.99360513 77.6840237,8.81374902 77.4659763,8.81374902 L77.4659763,8.81374902 Z M89.6964497,8.29416468 C87.1591716,8.29416468 85.4346154,9.4332534 85.4346154,9.4332534 L85.4346154,1.37969626 C85.4346154,1.17985613 85.2760355,1 85.0579882,1 L80.5384615,1 C80.3402367,1 80.1618343,1.15987211 80.1618343,1.37969626 L80.1618343,25.1406875 C80.1618343,25.3405276 80.3204142,25.5203837 80.5384615,25.5203837 L83.6704142,25.5203837 C83.8091716,25.5203837 83.9281065,25.4404477 83.987574,25.3205436 C84.0668639,25.2006395 84.1857988,24.2214229 84.1857988,24.2214229 C84.1857988,24.2214229 86.0292899,25.980016 89.5378698,25.980016 C93.6411243,25.980016 96,23.8816947 96,16.547562 C95.9801775,9.23341327 92.2337278,8.29416466 89.6964497,8.29416468 L89.6964497,8.29416468 Z M87.9322485,21.6634692 C86.3860947,21.6235012 85.335503,20.9040767 85.335503,20.9040767 L85.335503,13.3900879 C85.335503,13.3900879 86.3662722,12.7505995 87.6547337,12.6306955 C89.260355,12.4908074 90.8065089,12.9704237 90.8065089,16.8473222 C90.7866864,20.9240608 90.0928994,21.7434053 87.9322485,21.6634692 L87.9322485,21.6634692 Z M40.2591716,8.77378098 L36.8893491,8.77378098 L36.8893491,4.27737811 C36.8893491,4.097522 36.8100592,4.01758595 36.6118343,4.01758595 L32.0130178,4.01758595 C31.8346154,4.01758595 31.7355029,4.097522 31.7355029,4.27737811 L31.7355029,8.93365309 C31.7355029,8.93365309 29.4360947,9.49320544 29.2775148,9.53317348 C29.1189349,9.5731415 29,9.73301361 29,9.8928857 L29,12.8105516 C29,13.0303757 29.1585799,13.1902478 29.3766272,13.1902478 L31.7355029,13.1902478 L31.7355029,20.2246203 C31.7355029,25.4404477 35.3630178,25.960032 37.8210059,25.960032 C38.9508876,25.960032 40.2789941,25.6003198 40.4970414,25.5203837 C40.6357988,25.4804157 40.7150887,25.3405276 40.7150887,25.1806555 L40.7150887,21.9632294 C40.7150887,21.7633893 40.5366864,21.5835332 40.3384615,21.5835332 C40.1402367,21.5835332 39.6446746,21.6634693 39.1094674,21.6634692 C37.4443787,21.6634692 36.8893491,20.8840927 36.8893491,19.8848921 L36.8893491,13.2102318 L40.2591716,13.2102318 C40.4573964,13.2102318 40.6357988,13.0503597 40.6357988,12.8305356 L40.6357988,9.15347724 C40.6159763,8.95363711 40.4573965,8.773781 40.2591716,8.77378098 L40.2591716,8.77378098 Z" id="形状"></path>
                </g>
            </g>
        </g>
    </g>
</svg>