<svg class="icon" viewBox="0 0 1024 1024" xmlns="http://www.w3.org/2000/svg" width="200" height="200"><defs><style/></defs><path d="M696 591.008q8 7.008 18.496 4.512t16.512-12.512q4-7.008 4-18.016Q732 554.976 724.992 548q-3.008-2.016-7.008-4.512t-7.488-4.512-7.488-4-7.488-4-8-4-8.512-4q4-4 8-7.488t7.488-8 6.496-8.512 6.016-8.992l6.016-8q3.008-4.992 5.504-9.504t4.512-9.504l4-10.016q19.008-43.008 19.008-92.992 0-63.008-31.008-116t-84.512-84-117.504-31.008q-96 0-163.008 68.512t-67.008 164.512q0 46.016 17.504 88.512t50.496 74.496Q250.016 572 189.504 665.504t-60.512 204.512q0 4 1.504 8t3.488 7.008 4.992 5.504 7.008 3.488 8 .992q11.008 0 18.016-7.008t7.008-18.016q0-103.008 59.488-188.512T395.008 560.96q36 20.992 77.504 28t82.496-.512T632 560.96q38.016 14.016 64 30.016zm-1.984-228.992q0 20-3.488 38.016T679.04 435.04q-11.008 27.008-39.008 55.008-52 52-126.496 52t-127.488-52.512-52.992-127.008 52.992-127.008 127.008-52.512q84.992 0 140 64.992 40.992 51.008 40.992 114.016zm194.976 390.976l-95.008-95.008q-8-8-20-8t-20 8q-7.008 8-8 18.016v4.992q0 2.016.992 4t1.504 3.488 1.504 3.488l4 3.008L804 743.968H632q-11.008 0-19.008 8t-8 19.008q0 2.016.512 4.512t.992 4.512 1.504 4l4 4q.992 2.016 2.496 3.488t3.488 2.496 4.512 2.016 4.512 1.504 4.992.512h172l-50.016 48.992q-7.008 8.992-8 19.008 0 7.008 2.016 11.488t6.016 7.488q6.016 8 19.008 8t19.008-8l95.008-95.008q.992-.992 2.016-2.496t2.016-3.488 2.016-3.008q4-10.016 0-20 0-4-4-8z"/></svg>