<?xml version="1.0" standalone="no"?><!DOCTYPE svg PUBLIC "-//W3C//DTD SVG 1.1//EN" "http://www.w3.org/Graphics/SVG/1.1/DTD/svg11.dtd"><svg t="1586960570232" class="icon" viewBox="0 0 1024 1024" version="1.1" xmlns="http://www.w3.org/2000/svg" p-id="2203" xmlns:xlink="http://www.w3.org/1999/xlink" width="200" height="200"><defs><style type="text/css"></style></defs><path d="M696 591.008q8 7.008 18.496 4.512t16.512-12.512q4-7.008 4-18.016-3.008-10.016-10.016-16.992-3.008-2.016-7.008-4.512t-7.488-4.512-7.488-4-7.488-4-8-4-8.512-4q4-4 8-7.488t7.488-8 6.496-8.512 6.016-8.992l6.016-8q3.008-4.992 5.504-9.504t4.512-9.504l4-10.016q19.008-43.008 19.008-92.992 0-63.008-31.008-116t-84.512-84-117.504-31.008q-96 0-163.008 68.512t-67.008 164.512q0 46.016 17.504 88.512t50.496 74.496q-100.992 47.008-161.504 140.512t-60.512 204.512q0 4 1.504 8t3.488 7.008 4.992 5.504 7.008 3.488 8 0.992q11.008 0 18.016-7.008t7.008-18.016q0-103.008 59.488-188.512t156.512-120.512q36 20.992 77.504 28t82.496-0.512 76.992-27.488q38.016 14.016 64 30.016z m-1.984-228.992q0 20-3.488 38.016t-11.488 35.008q-11.008 27.008-39.008 55.008-52 52-126.496 52t-127.488-52.512-52.992-127.008 52.992-127.008 127.008-52.512q84.992 0 140 64.992 40.992 51.008 40.992 114.016z m194.976 390.976l-95.008-95.008q-8-8-20-8t-20 8q-7.008 8-8 18.016v4.992q0 2.016 0.992 4t1.504 3.488 1.504 3.488l4 3.008 50.016 48.992H632q-11.008 0-19.008 8t-8 19.008q0 2.016 0.512 4.512t0.992 4.512 1.504 4l4 4q0.992 2.016 2.496 3.488t3.488 2.496 4.512 2.016 4.512 1.504 4.992 0.512h172l-50.016 48.992q-7.008 8.992-8 19.008 0 7.008 2.016 11.488t6.016 7.488q6.016 8 19.008 8t19.008-8l95.008-95.008q0.992-0.992 2.016-2.496t2.016-3.488 2.016-3.008q4-10.016 0-20 0-4-4-8z" p-id="2204"></path></svg>