<svg width="16" height="16" xmlns="http://www.w3.org/2000/svg"><g><path d="M2.703 3.663c0 1.308.698 2.516 1.83 3.169a3.668 3.668 0 003.662 0 3.66 3.66 0 10-5.492-3.169zm6.223 11.711l-1.83-1.83c-.61-.61-.61-1.586 0-2.136l.73-.73c.305-.306.731-.49 1.1-.427l1.22-1.22c0-.12 0-.245.06-.366-1.16-.915-1.95-.915-1.95-.915H4.472s-.854-.06-1.95.915c-1.1.976-2.626 2.807-2.505 5.063.12 2.256 2.622 2.256 6.343 2.256 1.526 0 2.867 0 3.903-.184-.486.064-.973-.06-1.338-.426z"/><path d="M15.635 14.52l-2.075-2.076-.731-.73.365-.366c.12.06.184.12.305.12h.06c.121 0 .245-.06.366-.184l.731-.73a.59.59 0 000-.855l-1.096-1.1-.731-.731a.664.664 0 00-.426-.184.65.65 0 00-.426.184l-.734.737a.552.552 0 00-.06.731l-.185.12-1.77 1.77c-.12-.06-.184-.12-.305-.12a.543.543 0 00-.426.184l-.731.731a.59.59 0 000 .855l1.83 1.83c.121.122.306.185.426.185a.65.65 0 00.426-.184l.731-.731a.552.552 0 00.06-.731l.366-.305 1.036 1.036 1.707 1.706c.12.121.365.245.55.245.184 0 .426-.06.55-.245l.12-.12c.372-.248.372-.737.067-1.043z"/></g></svg>