<svg t="1586520610015" class="icon" viewBox="0 0 1024 1024" version="1.1" xmlns="http://www.w3.org/2000/svg" p-id="14930" width="200" height="200"><path d="M290.645333 667.716267V1024l205.585067-166.229333L700.245333 1024V667.716267z" fill="#5697CF" p-id="14931"></path><path d="M119.978667 375.466667C119.978667 168.106667 288.085333 0 495.445333 0s375.466667 168.106667 375.466667 375.466667a375.432533 375.432533 0 0 1-563.2 325.188266A375.3984 375.3984 0 0 1 119.978667 375.466667z m350.9248 107.895466c0-6.997333 4.1984-15.223467 12.629333-24.712533 8.362667-9.489067 24.7808-22.971733 49.220267-40.379733 25.361067-17.885867 43.793067-33.211733 55.296-45.9776 11.502933-12.731733 20.309333-26.385067 26.350933-40.96 6.075733-14.5408 9.1136-30.8224 9.1136-48.878934 0-32.3584-10.513067-57.7536-31.505067-76.1856-20.992-18.432-49.527467-27.648-85.640533-27.648-39.355733 0-74.820267 10.205867-106.3936 30.583467v67.208533c28.330667-24.917333 58.026667-37.341867 89.122133-37.341866 35.498667 0 53.213867 16.247467 53.213867 48.776533 0 15.086933-4.676267 29.354667-13.994667 42.8032-9.352533 13.448533-25.668267 28.910933-49.015466 46.318933-25.4976 18.056533-44.305067 33.792-56.456534 47.240534-12.117333 13.448533-21.674667 27.989333-28.5696 43.52-6.929067 15.5648-10.410667 32.768-10.410666 51.541333V546.133333h240.3328v-62.7712h-153.258667z" fill="#B9CAF1" p-id="14932"></path><path d="M495.445333 102.4a273.066667 273.066667 0 0 1 273.066667 273.066667c0 150.8352-122.197333 273.066667-273.066667 273.066666a273.066667 273.066667 0 0 1-273.066666-273.066666 273.066667 273.066667 0 0 1 273.066666-273.066667z m-24.541866 380.962133c0-6.997333 4.1984-15.223467 12.629333-24.712533 8.362667-9.489067 24.7808-22.971733 49.220267-40.379733 25.361067-17.885867 43.793067-33.211733 55.296-45.9776 11.502933-12.731733 20.309333-26.385067 26.350933-40.96 6.075733-14.5408 9.1136-30.8224 9.1136-48.878934 0-32.3584-10.513067-57.7536-31.505067-76.1856-20.992-18.432-49.527467-27.648-85.640533-27.648-39.355733 0-74.820267 10.205867-106.3936 30.583467v67.208533c28.330667-24.917333 58.026667-37.341867 89.122133-37.341866 35.498667 0 53.213867 16.247467 53.213867 48.776533 0 15.086933-4.676267 29.354667-13.994667 42.8032-9.352533 13.448533-25.668267 28.910933-49.015466 46.318933-25.4976 18.056533-44.305067 33.792-56.456534 47.240534-12.117333 13.448533-21.674667 27.989333-28.5696 43.52-6.929067 15.5648-10.410667 32.768-10.410666 51.541333V546.133333h240.3328v-62.7712h-153.258667z" fill="#9EAFD4" p-id="14933"></path></svg>