<svg t="1586520010644" class="icon" viewBox="0 0 1024 1024" version="1.1" xmlns="http://www.w3.org/2000/svg" p-id="4987" width="200" height="200"><path d="M309.735619 536.966095h411.696762v478.646857L512 870.546286l-209.481143 145.066666v-478.646857z" fill="#F65951" p-id="4988"></path><path d="M121.904762 391.899429c0 216.30781 174.616381 391.655619 390.095238 391.655619 215.381333 0 390.046476-175.34781 390.046476-391.655619 0-216.259048-174.665143-391.606857-390.095238-391.606858S121.904762 175.640381 121.904762 391.899429z" fill="#FFCC00" p-id="4989"></path><path d="M219.428571 390.095238c0 161.596952 127.853714 292.571429 285.598477 292.571429 157.744762 0 285.598476-130.974476 285.598476-292.571429s-127.853714-292.571429-285.598476-292.571428C347.282286 97.52381 219.428571 228.498286 219.428571 390.095238z" fill="#E7B900" p-id="4990"></path><path d="M505.027048 316.17219c-27.843048 14.726095-55.734857 29.403429-90.550858 36.766477v-29.403429c41.788952-14.726095 83.577905-36.766476 111.469715-58.806857h27.843047v264.679619h-48.761904V316.17219z" fill="#FFFFFF" p-id="4991"></path></svg>