<svg t="1586520467229" class="icon" viewBox="0 0 1024 1024" version="1.1" xmlns="http://www.w3.org/2000/svg" p-id="11145" width="200" height="200"><path d="M239.659574 638.365957V1002.212766L512 888.919149 786.519149 1002.212766V638.365957z" fill="#EE736D" p-id="11146"></path><path d="M239.659574 745.123404c74.076596 61.004255 169.940426 98.042553 272.340426 98.042553 104.578723 0 198.26383-37.038298 272.340426-98.042553v-106.757447H237.480851l2.178723 106.757447z" fill="#DA5953" p-id="11147"></path><path d="M512 387.812766m-387.812766 0a387.812766 387.812766 0 1 0 775.625532 0 387.812766 387.812766 0 1 0-775.625532 0Z" fill="#FFD69C" p-id="11148"></path><path d="M512 387.812766m-296.306383 0a296.306383 296.306383 0 1 0 592.612766 0 296.306383 296.306383 0 1 0-592.612766 0Z" fill="#E6742F" p-id="11149"></path><path d="M592.612766 244.017021c21.787234 17.429787 30.502128 39.217021 30.502128 69.719149 0 37.038298-19.608511 63.182979-56.646809 74.076596 21.787234 6.53617 37.038298 15.251064 45.753192 28.323404 10.893617 13.07234 17.429787 28.323404 17.429787 50.110639 0 30.502128-10.893617 56.646809-32.680851 78.434042-23.965957 21.787234-54.468085 30.502128-89.32766 30.502128-34.859574 0-63.182979-8.714894-84.970213-28.323405-23.965957-19.608511-37.038298-50.110638-39.217021-87.148936h56.646809c0 21.787234 8.714894 39.217021 21.787234 50.110639 13.07234 10.893617 28.323404 17.429787 47.931915 17.429787 21.787234 0 39.217021-6.53617 50.110638-17.429787 10.893617-10.893617 17.429787-23.965957 17.429787-41.395745 0-19.608511-6.53617-34.859574-17.429787-43.574468-10.893617-8.714894-28.323404-13.07234-50.110638-13.072341h-23.965958V370.382979h23.965958c19.608511 0 34.859574-4.357447 45.753191-13.072341 10.893617-8.714894 15.251064-21.787234 15.251064-39.217021s-4.357447-28.323404-13.072341-37.038298c-10.893617-8.714894-23.965957-13.07234-43.574468-13.07234-19.608511 0-34.859574 4.357447-45.753191 15.251064-10.893617 10.893617-17.429787 26.144681-19.608511 45.753191h-54.468085c2.178723-34.859574 15.251064-61.004255 39.217021-80.612766 21.787234-19.608511 47.931915-28.323404 82.79149-28.323404 26.144681-2.178723 54.468085 6.53617 76.255319 23.965957z" fill="#E2BEA8" p-id="11150"></path></svg>