<svg viewBox="0 0 288 288" xmlns="http://www.w3.org/2000/svg"><linearGradient id="a" gradientUnits="userSpaceOnUse" x1="76.81" x2="211.16" y1="211.17" y2="76.81"><stop offset=".21" stop-color="#24272a"/><stop offset=".42" stop-color="#24272a" stop-opacity="0"/><stop offset=".59" stop-color="#24272a" stop-opacity="0"/><stop offset=".81" stop-color="#24272a"/></linearGradient><path d="M88.46 216a16.45 16.45 0 0012.46-5.71L213.48 79.72A16.42 16.42 0 00199.54 72a16.46 16.46 0 00-12.41 5.65L74 207.45A16.46 16.46 0 0088.46 216z"/><path d="M88.46 216a16.46 16.46 0 007.54-1.83v-109l87.45 104.94a16.44 16.44 0 0012.64 5.89h3.45A16.46 16.46 0 00216 199.54V88.46A16.46 16.46 0 00199.54 72a16.36 16.36 0 00-7.54 1.81v109.05L104.55 77.92A16.44 16.44 0 0091.91 72h-3.45A16.46 16.46 0 0072 88.46v111.08A16.46 16.46 0 0088.46 216z"/></svg>