<svg width="342" height="90" xmlns="http://www.w3.org/2000/svg"><g><path d="M10.29 90c2.992 0 5.836-1.304 7.79-3.57L88.43 4.82A10.29 10.29 0 0079.71 0a10.28 10.28 0 00-7.75 3.53L1.27 84.66A10.27 10.27 0 0010.29 90z"/><path d="M10.29 90A10.18 10.18 0 0015 88.85V20.72L69.65 86.3a10.32 10.32 0 007.91 3.7h2.15A10.29 10.29 0 0090 79.71V10.29A10.29 10.29 0 0079.71 0 10.32 10.32 0 0075 1.13v68.15L20.35 3.7A10.32 10.32 0 0012.44 0h-2.15C4.607 0 0 4.607 0 10.29v69.42C0 85.393 4.607 90 10.29 90zM171.21 18.75v52.5a.76.76 0 01-.75.75H165a7.49 7.49 0 01-6.3-3.43l-24.78-38.3.85 19.13v21.85a.76.76 0 01-.75.75h-7.22a.76.76 0 01-.75-.75v-52.5a.76.76 0 01.75-.75h5.43a7.52 7.52 0 016.3 3.42l24.78 38.24-.77-19.06V18.75a.75.75 0 01.75-.75h7.22a.76.76 0 01.7.75zM245 72h-7.64a.75.75 0 01-.7-1l20.24-52.28A1.14 1.14 0 01258 18h9.57c.464.004.88.289 1.05.72L288.8 71a.75.75 0 01-.7 1h-7.64a.76.76 0 01-.71-.48l-16.31-43a.75.75 0 00-1.41 0l-16.31 43a.76.76 0 01-.72.48zM341.84 70.79L326.66 51.4c8.57-1.62 13.58-7.4 13.58-16.27 0-10.19-6.63-17.13-18.36-17.13h-21.17a1.12 1.12 0 00-1.12 1.12 7.2 7.2 0 007.2 7.2H321c7.09 0 10.49 3.63 10.49 8.87 0 5.24-3.32 9-10.49 9h-20.29a1.13 1.13 0 00-1.12 1.13v26c0 .414.336.75.75.75h7.22a.76.76 0 00.75-.75V51.87h8.33l13.17 17.19a7.51 7.51 0 006 2.94h5.48a.75.75 0 00.55-1.21zM222.17 18h-33.5a1 1 0 00-1 1 7.33 7.33 0 007.33 7.33h27.17a.74.74 0 00.75-.75v-6.83a.75.75 0 00-.75-.75zm0 45.67h-25a.76.76 0 01-.75-.75V49.38a.75.75 0 01.75-.75h23.11a.75.75 0 00.75-.75V41a.75.75 0 00-.75-.75h-31.49a1.13 1.13 0 00-1.12 1.13v29.46a1.12 1.12 0 001.12 1.12h33.38a.75.75 0 00.75-.75v-6.83a.74.74 0 00-.75-.71z"/></g></svg>