<?xml version="1.0" encoding="UTF-8"?>
<svg width="151px" height="40px" viewBox="0 0 151 40" version="1.1" xmlns="http://www.w3.org/2000/svg" xmlns:xlink="http://www.w3.org/1999/xlink">
    <defs>
        <linearGradient x1="24.1627657%" y1="76.8292943%" x2="78.2101911%" y2="21.0928869%" id="linearGradient-1">
            <stop stop-color="#FFFFFF" offset="0%"></stop>
            <stop stop-color="#24272A" stop-opacity="0" offset="42%"></stop>
            <stop stop-color="#24272A" stop-opacity="0" offset="59%"></stop>
            <stop stop-color="#FFFFFF" offset="100%"></stop>
        </linearGradient>
    </defs>
    <g id="页面-1" stroke="none" stroke-width="1" fill="none" fill-rule="evenodd">
        <g id="注册&amp;登录" transform="translate(-884.000000, -491.000000)" fill-rule="nonzero">
            <g id="logo" transform="translate(884.000000, 491.000000)">
                <path d="M4.56,39.6 C5.84,39.6 7.12,39.04 8,38 L38.96,2.16 C38.08,0.8 36.64,3.55271368e-15 35.12,3.55271368e-15 C33.84,3.55271368e-15 32.56,0.56 31.68,1.52 L0.56,37.28 C1.36,38.72 2.88,39.6 4.56,39.6 L4.56,39.6 Z" id="路径" fill="url(#linearGradient-1)"></path>
                <path d="M4.56,39.6 C5.28,39.6 6,39.44 6.64,39.12 L6.64,9.12 L30.72,38 C31.6,39.04 32.88,39.6 34.24,39.6 L35.2,39.6 C37.68,39.6 39.76,37.6 39.76,35.04 L39.76,4.56 C39.6,2 37.6,-7.10542736e-15 35.12,-7.10542736e-15 C34.4,-7.10542736e-15 33.68,0.16 33.04,0.48 L33.04,30.48 L8.96,1.6 C8.08,0.56 6.8,-7.10542736e-15 5.44,-7.10542736e-15 L4.56,-7.10542736e-15 C2,-7.10542736e-15 1.0658141e-14,2 1.0658141e-14,4.56 L1.0658141e-14,35.12 C1.0658141e-14,37.6 2,39.6 4.56,39.6 Z" id="路径" fill="#FFFFFF"></path>
                <path d="M75.36,8.24 L75.36,31.36 C75.36,31.52 75.2,31.68 75.04,31.68 L72.64,31.68 C71.52,31.68 70.48,31.12 69.84,30.16 L58.96,13.36 L59.36,21.76 L59.36,31.36 C59.36,31.52 59.2,31.68 59.04,31.68 L55.84,31.68 C55.68,31.68 55.52,31.52 55.52,31.36 L55.52,8.24 C55.52,8.08 55.68,7.92 55.84,7.92 L58.24,7.92 C59.36,7.92 60.4,8.48 61.04,9.44 L71.92,26.24 L71.6,17.84 L71.6,8.24 C71.6,8.08 71.76,7.92 71.92,7.92 L75.12,7.92 C75.28,7.92 75.36,8.08 75.36,8.24 L75.36,8.24 Z" id="路径" fill="#FFFFFF"></path>
                <path d="M107.92,31.68 L104.56,31.68 C104.4,31.68 104.24,31.52 104.24,31.36 L104.24,31.28 L113.12,8.24 C113.2,8.08 113.36,7.92 113.6,7.92 L117.84,7.92 C118.08,7.92 118.24,8.08 118.32,8.24 L127.2,31.28 C127.28,31.44 127.2,31.68 126.96,31.68 L126.88,31.68 L123.52,31.68 C123.36,31.68 123.28,31.6 123.2,31.44 L116,12.48 C115.92,12.32 115.76,12.24 115.6,12.32 C115.52,12.32 115.44,12.4 115.44,12.48 L108.24,31.44 C108.16,31.6 108,31.68 107.92,31.68 Z" id="路径" fill="#FFFFFF"></path>
                <path d="M150.56,31.2 L143.84,22.64 C147.6,21.92 149.84,19.36 149.84,15.44 C149.84,10.96 146.96,7.92 141.76,7.92 L132.4,7.92 C132.16,7.92 131.92,8.16 131.92,8.4 C131.92,10.16 133.36,11.6 135.12,11.6 L141.36,11.6 C144.48,11.6 146,13.2 146,15.52 C146,17.84 144.56,19.52 141.36,19.52 L132.4,19.52 C132.16,19.52 131.92,19.76 131.92,20 L131.92,31.44 C131.92,31.6 132.08,31.76 132.24,31.76 L135.44,31.76 C135.6,31.76 135.76,31.6 135.76,31.44 L135.76,22.88 L139.44,22.88 L145.2,30.48 C145.84,31.28 146.8,31.76 147.84,31.76 L150.24,31.76 C150.4,31.76 150.56,31.6 150.56,31.44 C150.56,31.28 150.56,31.2 150.56,31.2 L150.56,31.2 Z" id="路径" fill="#FFFFFF"></path>
                <path d="M97.84,7.92 L83.12,7.92 C82.88,7.92 82.64,8.08 82.64,8.4 C82.64,10.16 84.08,11.6 85.84,11.6 L97.84,11.6 C98,11.6 98.16,11.44 98.16,11.28 L98.16,8.24 C98.16,8.08 98,7.92 97.84,7.92 L97.84,7.92 Z M97.84,28 L86.8,28 C86.64,28 86.48,27.84 86.48,27.68 L86.48,21.68 C86.48,21.52 86.64,21.36 86.8,21.36 L96.96,21.36 C97.12,21.36 97.28,21.2 97.28,21.04 L97.28,18 C97.28,17.84 97.12,17.68 96.96,17.68 L83.12,17.68 C82.88,17.68 82.64,17.92 82.64,18.16 L82.64,31.2 C82.64,31.44 82.88,31.68 83.12,31.68 L97.84,31.68 C98,31.68 98.16,31.52 98.16,31.36 L98.16,28.32 C98.16,28.16 98,28 97.84,28 L97.84,28 Z" id="形状" fill="#FFFFFF"></path>
            </g>
        </g>
    </g>
</svg>