<?xml version="1.0" encoding="UTF-8"?>
<svg width="21px" height="20px" viewBox="0 0 21 20" version="1.1" xmlns="http://www.w3.org/2000/svg" xmlns:xlink="http://www.w3.org/1999/xlink">
    <g stroke="none" stroke-width="1" fill="none" fill-rule="evenodd">
        <g transform="translate(-1099.000000, -297.000000)" fill="#FCE812">
            <g transform="translate(1099.000000, 297.000000)">
                <polygon points="10.0447564 -6.04729347e-15 6.84977679 6.05424107 0.000914537133 7.39151786 4.88504464 12.2383929 3.58727679 18.7573661 10.0454367 16.0727679 16.1802455 18.7573661 15.2049107 12.2383929 20.0899571 7.39151786 13.2401786 6.05424107"></polygon>
                <path d="M10.0446429,14.4060268 L14.9015625,18.0033482 C15.0032513,18.0776323 15.1338858,18.0999418 15.2544643,18.0636161 C15.4540179,18.0033482 15.5598214,17.8078125 15.5022321,17.6270089 L13.640625,11.7341518 L18.6073661,8.03102679 C18.6957863,7.96702731 18.7486891,7.86494731 18.75,7.75580357 C18.75,7.56428571 18.5845982,7.4015625 18.3709821,7.40089286 L12.2604911,7.39151786 L10.4089286,1.59241071 C10.370398,1.47818991 10.2783197,1.39011503 10.1625,1.35669643 C9.95625,1.29441964 9.740625,1.40491071 9.68035714,1.59241071 L7.82879464,7.39151786 L1.71830357,7.4015625 C1.59947597,7.40081303 1.48679837,7.4543164 1.41227679,7.546875 C1.35484555,7.61940375 1.32977399,7.71236159 1.34294604,7.80393267 C1.35611809,7.89550376 1.40637407,7.9776261 1.48191964,8.03102679 L6.44933036,11.7341518 L4.58705357,17.6270089 C4.55373798,17.7325551 4.57507182,17.8477579 4.64397321,17.934375 C4.77053571,18.0964286 5.01763393,18.1292411 5.18772321,18.0033482 L10.0446429,14.4060268 Z M5.98459821,19.0801339 C5.22956413,19.6380411 4.16787008,19.4950979 3.58727679,18.7573661 C3.24753233,18.3232634 3.14357208,17.7496032 3.309375,17.2238839 L4.88504464,12.2383929 L0.681696429,9.10446429 C0.317015442,8.83530493 0.0768892559,8.42992579 0.0160766084,7.98077014 C-0.044736039,7.53161449 0.0789497826,7.07697765 0.358928571,6.72053571 C0.686758774,6.3048957 1.1869278,6.06233717 1.71629464,6.06227679 L6.84977679,6.05424107 L8.4046875,1.18526786 C8.68928571,0.294642857 9.65022321,-0.198214286 10.5508929,0.0756696429 C11.0884669,0.236509186 11.5125977,0.651376294 11.6852679,1.18526786 L13.2401786,6.05357143 L18.3736607,6.06227679 C19.3191964,6.06361607 20.0912946,6.81897321 20.0899571,7.7578125 C20.0878516,8.28909342 19.8351795,8.78823236 19.4082589,9.10446429 L15.2049107,12.2383929 L16.7805804,17.2238839 C17.0645089,18.1232143 16.5488839,19.0727679 15.6401786,19.3459821 C15.1151438,19.5037372 14.5464717,19.4049887 14.1053571,19.0794643 L10.0446429,16.0727679 L5.98459821,19.0794643 L5.98459821,19.0801339 Z" fill-rule="nonzero"></path>
            </g>
        </g>
    </g>
</svg>