<svg width="28" height="20" xmlns="http://www.w3.org/2000/svg"><path d="M16.057 12.939c-.103 0-.808-.682-.304-1.941C16.865 9.93 17.77 8.182 17.77 6.43c0-2.623-1.917-3.984-3.934-3.984-2.115 0-3.931 1.361-3.931 3.984 0 1.75.808 3.498 1.914 4.568.404 1.066-.304 1.845-.505 1.94-2.218.779-4.742 2.14-4.742 3.594v.487c0 1.845 3.734 2.332 7.264 2.332 3.43 0 7.164-.388 7.164-2.332v-.487c-.097-1.454-2.722-2.911-4.943-3.593zm6.66-3.498c-.104 0-.705-.192-.304-1.361 1.008-.97 1.716-2.623 1.716-4.276 0-2.428-1.613-3.789-3.63-3.789-1.413 0-2.723.682-3.23 2.04 1.212.97 2.017 2.428 2.017 4.372 0 2.04-1.008 3.985-2.117 5.247 1.713.583 4.338 1.845 5.046 3.792 2.622-.096 5.047-.682 5.047-2.14v-.486c.097-1.455-2.328-2.717-4.545-3.399zm-18.163 0c.104 0 .705-.192.304-1.361-1.009-.97-1.717-2.623-1.717-4.276C3.245 1.376 4.858.015 6.772.015c1.41 0 2.725.682 3.23 2.04-1.213.97-2.018 2.428-2.018 4.372 0 2.04 1.01 3.985 2.118 5.247-1.714.583-4.339 1.845-5.046 3.792-2.622-.1-5.047-.682-5.047-2.14v-.486c.01-1.455 2.428-2.717 4.545-3.399z"/></svg>