<svg t="1586879265195" class="icon" viewBox="0 0 1365 1024" version="1.1" xmlns="http://www.w3.org/2000/svg" p-id="17884" width="200" height="200"><path d="M850.51 0H515.092c-46.264 0-83.92 36.985-83.92 82.442V1024H934.43V82.576C934.43 36.985 896.773 0 850.51 0zM711.312 263.33h-40.885v-127.9h-50.433v-30.26c6.859 0.27 13.718-0.269 20.577-1.479 6.32-1.076 12.373-3.362 17.887-6.455 11.431-6.59 18.963-18.156 20.576-31.202h32.412V263.33zM0 362.448v579.38C0 987.15 37.657 1024 83.787 1024H358.01V279.468H85.67c-47.206 0-85.67 37.254-85.67 82.98z m202.406 22.056c-5.648-5.38-12.91-8.069-21.653-8.069-5.38-0.135-10.624 1.21-15.062 4.035-4.17 2.69-7.532 6.455-9.953 10.759-2.555 4.572-4.438 9.549-5.38 14.66a79.438 79.438 0 0 0-1.613 15.869h-39.002c-0.403-10.625 0.942-21.25 4.035-31.336a70.509 70.509 0 0 1 13.852-25.284 62.571 62.571 0 0 1 23.132-16.946c10.221-4.169 21.115-6.32 32.143-6.052 8.876 0 17.753 1.345 26.226 4.304 8.069 2.69 15.466 6.724 22.056 12.104 6.32 5.38 11.566 11.97 15.063 19.5 3.765 8.07 5.783 16.946 5.648 25.957 0 9.952-1.614 18.56-4.842 25.688-3.227 6.993-7.53 13.449-12.91 18.963-5.515 5.648-11.567 10.759-18.291 15.062-6.859 4.439-13.718 9.011-20.577 13.45-6.859 4.437-13.583 9.28-20.173 14.255-6.59 5.11-12.373 11.028-17.215 17.753h94.95v34.16H105.17c0-11.432 1.614-21.518 4.977-29.857 3.227-8.338 7.934-16.004 13.583-22.728 6.052-6.86 12.776-13.046 20.308-18.425 7.8-5.649 16.004-11.297 24.611-17.215 4.438-2.959 9.146-6.052 14.122-9.145 4.841-2.959 9.414-6.456 13.583-10.221 4.035-3.632 7.531-7.935 10.356-12.642a30.784 30.784 0 0 0 4.169-16.139c0-9.683-2.824-17.215-8.473-22.46z m1077.661 104.498h-272.34V1024h274.089c46.264 0 83.786-36.85 83.786-82.173V572.655c0-46.13-38.33-83.653-85.535-83.653z m-24.746 232.935c-4.034 7.935-9.683 14.794-16.542 20.308-7.128 5.514-15.197 9.818-23.804 12.373-9.146 2.825-18.694 4.304-28.243 4.304-10.49 0.134-20.98-1.48-30.933-4.842-8.741-2.958-16.81-7.666-23.67-13.986-6.59-6.321-11.7-13.853-15.063-22.326-3.765-9.683-5.38-20.039-4.976-30.394h38.733c0.135 5.11 1.076 10.221 2.556 15.063 1.344 4.572 3.63 8.741 6.59 12.373a32.681 32.681 0 0 0 10.759 8.338c4.841 2.152 10.086 3.228 15.331 3.093 9.146 0 16.946-2.69 23.267-8.338s9.414-13.18 9.414-22.729c0-7.531-1.48-13.18-4.438-17.214-2.959-3.9-6.859-6.86-11.431-8.608-4.842-1.748-9.953-2.824-15.063-3.093a323.573 323.573 0 0 0-15.736-0.403v-28.243c4.708 0.403 9.415 0.403 14.122 0a41.606 41.606 0 0 0 13.987-3.228c4.169-1.614 7.8-4.304 10.624-7.8 2.825-3.363 4.17-7.935 4.17-13.584 0-8.472-2.825-14.928-8.608-19.5-5.648-4.439-12.642-6.86-19.904-6.725-10.356 0-18.156 3.362-23.401 9.952s-7.8 15.063-7.666 25.284h-38.733c0.269-9.549 2.152-18.828 5.649-27.705a61.662 61.662 0 0 1 35.774-35.505c9.01-3.362 18.56-5.11 28.242-4.976 8.204 0 16.408 1.21 24.208 3.497 7.8 2.152 15.198 5.783 21.653 10.49 6.321 4.573 11.7 10.49 15.735 17.215 4.17 7.128 6.187 15.197 6.052 23.4 0.135 9.011-2.286 17.753-6.993 25.285-4.707 7.397-11.7 12.373-21.115 14.928v0.538c11.028 2.42 19.77 7.666 26.091 15.735 6.321 8.07 9.549 17.753 9.414 29.05 0.27 9.952-1.883 19.366-6.052 27.973z" p-id="17885"></path></svg>