<svg width="743" height="45" xmlns="http://www.w3.org/2000/svg"><path d="M19.564 35.217l-4.078-8.635h-4.223v8.635H0V1.957h16.457c4.628 0 8.204 1.035 10.728 3.107 2.525 2.072 3.787 5.006 3.787 8.802 0 2.404-.461 4.5-1.384 6.287-.922 1.787-2.257 3.202-4.005 4.246l6.7 10.818h-12.72zm-7.825-16.63h5.065c1.2 0 2.122-.352 2.77-1.054.646-.703.97-1.68.97-2.93 0-1.218-.324-2.163-.97-2.835-.648-.671-1.57-1.007-2.77-1.007h-5.065v7.826zm35.218-9.783c2.814 0 5.253.579 7.316 1.736 2.064 1.157 3.643 2.807 4.738 4.95 1.094 2.142 1.641 4.652 1.641 7.53 0 .594-.015 1.047-.047 1.36H43.908c.344 1 .883 1.76 1.618 2.275.735.517 1.618.775 2.65.775 1.845 0 3.58-.767 5.206-2.3l5.488 5.396c-1.376 1.532-3.041 2.698-4.995 3.495-1.955.798-4.167 1.196-6.637 1.196-2.877 0-5.37-.54-7.481-1.618-2.11-1.08-3.721-2.604-4.831-4.574-1.11-1.97-1.665-4.27-1.665-6.897 0-2.69.563-5.035 1.688-7.037 1.126-2.002 2.729-3.55 4.808-4.645 2.08-1.094 4.48-1.642 7.2-1.642zm3.903 10.761c.067-.853-.21-1.555-.83-2.107-.62-.552-1.416-.828-2.388-.828-.939 0-1.718.264-2.338.79-.62.527-1.048 1.242-1.282 2.145h6.838zm26.233-10.76c3.756 0 6.682.83 8.78 2.492 2.1 1.661 3.149 3.982 3.149 6.964v16.49H78.56v-2.748c-1.578 2.143-4.008 3.214-7.29 3.214-2.714 0-4.836-.722-6.367-2.166-1.53-1.444-2.295-3.393-2.295-5.846 0-2.516.852-4.425 2.556-5.73 1.704-1.304 4.197-1.987 7.479-2.05h5.917c-.032-.9-.387-1.591-1.065-2.073-.679-.48-1.665-.722-2.959-.722-1.01 0-2.217.14-3.621.42-1.404.28-2.816.683-4.236 1.21l-2.367-6.987a42.427 42.427 0 016.603-1.84c2.193-.419 4.252-.629 6.177-.629zM75.11 28.37c.797 0 1.567-.156 2.31-.468.742-.312 1.35-.752 1.82-1.319v-2.126H75c-1.74 0-2.609.623-2.609 1.871 0 .652.236 1.155.707 1.51.47.354 1.141.532 2.01.532zM121.304 0v34.842h-10.737v-2.583c-1.718 1.972-3.929 2.958-6.633 2.958-2.386 0-4.485-.547-6.299-1.643-1.813-1.096-3.213-2.653-4.2-4.672-.985-2.02-1.478-4.375-1.478-7.067 0-2.63.477-4.93 1.431-6.903.955-1.972 2.315-3.49 4.08-4.555 1.766-1.064 3.826-1.596 6.18-1.596 1.4 0 2.688.258 3.865.775a8.706 8.706 0 013.054 2.23V0h10.737zm-14.65 26.413c1.185 0 2.129-.446 2.833-1.338.704-.892 1.056-2.077 1.056-3.553 0-1.477-.352-2.661-1.056-3.553-.704-.893-1.648-1.339-2.833-1.339-1.184 0-2.136.446-2.856 1.339-.72.892-1.08 2.076-1.08 3.553 0 1.476.36 2.66 1.08 3.553.72.892 1.672 1.338 2.856 1.338zm37.141 10.803c-1.085 2.657-2.568 4.619-4.451 5.885-1.883 1.266-4.228 1.899-7.036 1.899-1.724 0-3.311-.242-4.763-.727-1.452-.484-2.88-1.243-4.284-2.274l4.5-6.94c1.116 1 2.28 1.5 3.493 1.5s2.075-.438 2.585-1.313l.383-.61-10.865-24.853h11.057l5.17 14.63 4.26-14.63h10.721l-10.77 27.433zm22.51-35.26h10.827V26.06h13.629v9.157h-24.457V1.957zm39.919 6.848c3.755 0 6.682.831 8.78 2.493 2.099 1.661 3.148 3.982 3.148 6.964v16.49h-10.46v-2.748c-1.579 2.143-4.009 3.214-7.29 3.214-2.714 0-4.837-.722-6.367-2.166-1.53-1.444-2.296-3.393-2.296-5.846 0-2.516.852-4.425 2.556-5.73 1.704-1.304 4.197-1.987 7.48-2.05h5.916c-.031-.9-.386-1.591-1.065-2.073-.678-.48-1.665-.722-2.958-.722-1.01 0-2.217.14-3.622.42-1.404.28-2.816.683-4.236 1.21l-2.367-6.987a42.427 42.427 0 016.603-1.84c2.194-.419 4.253-.629 6.178-.629zm-1.985 19.566c.797 0 1.567-.156 2.31-.468.743-.312 1.35-.752 1.82-1.319v-2.126h-4.239c-1.739 0-2.608.623-2.608 1.871 0 .652.235 1.155.706 1.51.471.354 1.142.532 2.011.532zm35.426 8.846c-1.085 2.657-2.569 4.619-4.452 5.885-1.882 1.266-4.228 1.899-7.036 1.899-1.723 0-3.31-.242-4.763-.727-1.452-.484-2.88-1.243-4.284-2.274l4.5-6.94c1.117 1 2.281 1.5 3.494 1.5s2.074-.438 2.585-1.313l.383-.61-10.866-24.853h11.057l5.17 14.63 4.26-14.63h10.722l-10.77 27.433zm25.444-28.412c2.814 0 5.253.579 7.317 1.736 2.063 1.157 3.642 2.807 4.737 4.95 1.094 2.142 1.641 4.652 1.641 7.53 0 .594-.015 1.047-.047 1.36H262.06c.344 1 .883 1.76 1.618 2.275.735.517 1.618.775 2.65.775 1.845 0 3.58-.767 5.206-2.3l5.488 5.396c-1.376 1.532-3.04 2.698-4.995 3.495-1.954.798-4.167 1.196-6.637 1.196-2.877 0-5.37-.54-7.48-1.618-2.112-1.08-3.722-2.604-4.832-4.574-1.11-1.97-1.665-4.27-1.665-6.897 0-2.69.563-5.035 1.689-7.037 1.125-2.002 2.728-3.55 4.807-4.645 2.08-1.094 4.48-1.642 7.2-1.642zm2.925 10.761c.067-.853-.21-1.555-.83-2.107-.62-.552-1.416-.828-2.388-.828-.939 0-1.718.264-2.338.79-.62.527-1.048 1.242-1.282 2.145h6.838zm24.374-6.493c.916-1.36 2.046-2.41 3.39-3.153 1.343-.743 2.853-1.115 4.528-1.115v9.627a15.082 15.082 0 00-2.039-.143c-1.833 0-3.271.403-4.315 1.21-1.043.806-1.564 1.92-1.564 3.343v12.376h-10.669V9.28h10.669v3.793zM329.185.978c3.447 0 6.55.733 9.307 2.199 2.758 1.465 4.912 3.492 6.464 6.08 1.551 2.589 2.327 5.504 2.327 8.747 0 3.275-.776 6.221-2.327 8.84-1.552 2.62-3.706 4.67-6.464 6.152-2.758 1.48-5.86 2.221-9.307 2.221s-6.55-.74-9.308-2.221c-2.757-1.482-4.912-3.532-6.463-6.151-1.551-2.62-2.327-5.566-2.327-8.84 0-3.275.776-6.206 2.327-8.794 1.551-2.589 3.706-4.608 6.463-6.058 2.758-1.45 5.86-2.175 9.308-2.175zm.629 9.783c-1.243 0-2.4.34-3.47 1.018-1.072.678-1.926 1.606-2.563 2.782-.637 1.176-.955 2.503-.955 3.98 0 1.478.318 2.813.955 4.004.637 1.191 1.49 2.134 2.562 2.828 1.072.693 2.228 1.04 3.47 1.04a6.03 6.03 0 003.401-1.018c1.025-.678 1.833-1.62 2.423-2.827.59-1.206.885-2.549.885-4.026 0-1.478-.295-2.813-.885-4.004-.59-1.191-1.398-2.118-2.423-2.782a6.128 6.128 0 00-3.4-.995zm38.649-1.957c1.773 0 3.352.411 4.736 1.233 1.384.822 2.465 1.976 3.243 3.462.778 1.486 1.167 3.209 1.167 5.169v16.55h-10.5V21.75c0-1.075-.28-1.936-.84-2.584-.56-.648-1.29-.972-2.193-.972-1.026 0-1.843.379-2.45 1.138-.606.758-.91 1.77-.91 3.035v12.85h-10.499V9.28h10.5v3.698c.87-1.36 1.967-2.394 3.29-3.106 1.322-.711 2.807-1.067 4.456-1.067zm26.754 0c2.815 0 5.254.579 7.317 1.736 2.064 1.157 3.643 2.807 4.737 4.95 1.095 2.142 1.642 4.652 1.642 7.53 0 .594-.016 1.047-.047 1.36H392.17c.344 1 .883 1.76 1.618 2.275.735.517 1.618.775 2.65.775 1.845 0 3.58-.767 5.206-2.3l5.488 5.396c-1.376 1.532-3.041 2.698-4.995 3.495-1.955.798-4.167 1.196-6.637 1.196-2.877 0-5.37-.54-7.481-1.618-2.11-1.08-3.721-2.604-4.831-4.574-1.11-1.97-1.665-4.27-1.665-6.897 0-2.69.563-5.035 1.688-7.037 1.126-2.002 2.728-3.55 4.808-4.645 2.08-1.094 4.479-1.642 7.2-1.642zm3.904 10.761c.067-.853-.21-1.555-.83-2.107-.62-.552-1.416-.828-2.388-.828-.939 0-1.718.264-2.338.79-.62.527-1.048 1.242-1.282 2.145h6.838zm22.51-17.608h10.997v12.905h10.287V1.957h10.998v33.26h-10.998V23.213h-10.287v12.004H421.63V1.957zm61.863 33.26l-1.63-4.697h-12.252l-1.677 4.697h-11.087l13.789-33.26h11.087L495 35.217h-11.506zM472.5 22.5h6.848l-3.377-9.783L472.5 22.5zm48.383-8.004a12.063 12.063 0 00-3.557-3.25c-1.385-.827-2.73-1.24-4.036-1.24-1.305 0-2.49.335-3.557 1.005-1.067.67-1.895 1.599-2.484 2.784-.589 1.185-.883 2.525-.883 4.022 0 1.497.294 2.846.883 4.046.59 1.2 1.417 2.144 2.484 2.83 1.066.686 2.252 1.03 3.557 1.03 1.21 0 2.507-.352 3.892-1.053a13.261 13.261 0 003.701-2.783l6.4 6.688c-1.879 2.027-4.131 3.641-6.758 4.842-2.626 1.2-5.229 1.8-7.808 1.8-3.375 0-6.407-.74-9.097-2.221-2.69-1.482-4.8-3.54-6.328-6.175-1.528-2.635-2.292-5.59-2.292-8.863 0-3.244.78-6.151 2.34-8.724 1.56-2.573 3.717-4.592 6.47-6.057 2.755-1.466 5.867-2.199 9.337-2.199 2.547 0 5.11.554 7.689 1.66 2.578 1.108 4.727 2.581 6.447 4.421l-6.4 7.437zm42.595 20.721H550.36l-7.008-11.577-3.126 3.511v8.066h-10.987V1.957h10.987v12.146l9.898-12.146h12.644L550.88 15.242l12.597 19.975zm26.646 0l-1.63-4.697h-12.252l-1.677 4.697h-11.087l13.79-33.26h11.086l13.276 33.26h-11.506zM579.13 22.5h6.848l-3.377-9.783-3.47 9.783zm22.5-20.543h30.327v8.682h-9.613v24.578h-11.15V10.64h-9.564V1.957zm32.283 0h10.998v12.905h10.287V1.957h10.998v33.26h-10.998V23.213H644.91v12.004h-10.998V1.957zm55.272-.979c3.447 0 6.55.733 9.307 2.199 2.758 1.465 4.913 3.492 6.464 6.08 1.551 2.589 2.327 5.504 2.327 8.747 0 3.275-.776 6.221-2.327 8.84-1.551 2.62-3.706 4.67-6.464 6.152-2.758 1.48-5.86 2.221-9.307 2.221s-6.55-.74-9.308-2.221c-2.757-1.482-4.912-3.532-6.463-6.151-1.551-2.62-2.327-5.566-2.327-8.84 0-3.275.776-6.206 2.327-8.794 1.551-2.589 3.706-4.608 6.463-6.058 2.758-1.45 5.86-2.175 9.308-2.175zm-.35 9.783c-1.242 0-2.399.34-3.47 1.018-1.072.678-1.926 1.606-2.562 2.782-.637 1.176-.955 2.503-.955 3.98 0 1.478.318 2.813.955 4.004.636 1.191 1.49 2.134 2.562 2.828 1.071.693 2.228 1.04 3.47 1.04a6.03 6.03 0 003.401-1.018c1.025-.678 1.832-1.62 2.422-2.827.59-1.206.885-2.549.885-4.026 0-1.478-.295-2.813-.885-4.004-.59-1.191-1.397-2.118-2.422-2.782a6.128 6.128 0 00-3.4-.995zm43.71-8.804h9.955v33.26h-9.197L720.22 18.231v16.986h-10.003V1.957h9.197l13.131 17.08V1.958z"/></svg>