<?xml version="1.0" encoding="UTF-8"?>
<svg width="23px" height="20px" viewBox="0 0 23 20" version="1.1" xmlns="http://www.w3.org/2000/svg" xmlns:xlink="http://www.w3.org/1999/xlink">
    <!-- Generator: Sketch 57.1 (83088) - https://sketch.com -->
    <g id="页面-1" stroke="none" stroke-width="1" fill="none" fill-rule="evenodd">
        <g id="DAO详情页_任务页" transform="translate(-380.000000, -688.000000)" fill-rule="nonzero">
            <g id="编组" transform="translate(380.000000, 688.000000)">
                <path d="M21.1585366,16.6707317 L18.6158537,16.2256098 C16.2621951,15.8140244 13.8506098,15.820122 11.5,16.2439024 C9.20121951,16.6585366 6.85365854,16.6737805 4.55182927,16.2896341 C4.29268293,16.2469512 4.05792683,16.445122 4.05487805,16.7073171 L4.04573171,18.2987805 C4.04268293,19.0182927 3.45121951,19.5945122 2.73170732,19.5825071 L1.56707317,19.5609756 C0.862804878,19.5487805 0.301829268,18.9756098 0.301829268,18.2713415 L0.301829268,1.44512195 C0.301829268,0.725609756 0.957317073,0.182926829 1.66463415,0.320121951 L4.05487805,0.780487805 C6.51219512,1.25304878 9.03353659,1.08536585 11.4969512,0.640243902 C13.8506098,0.216463415 16.2591463,0.210365854 18.6128049,0.62195122 L21.0213415,1.04573171 C21.9085366,1.20121951 22.5579372,1.97256098 22.5579372,2.87195122 L22.5579372,15.4939024 C22.5609756,16.2347561 21.8902439,16.7987805 21.1585366,16.6707317 Z" id="路径" fill="#FF556E"></path>
                <path d="M2.24085366,0.426829268 L1.66768293,0.317073171 C1.42378049,0.271341463 1.18902439,0.304878049 0.981707317,0.396341463 C0.765243902,0.625 0.554878049,0.862804878 0.353658537,1.10670732 C0.320121951,1.21341463 0.301829268,1.32621951 0.301829268,1.44512195 L0.301829268,2.73170732 C0.853658537,1.88414634 1.50304878,1.1097561 2.24085366,0.426829268 L2.24085366,0.426829268 Z M22.5609756,7.32621951 L22.5609756,2.86890244 C22.5609756,1.96646341 21.9146341,1.19817073 21.0243902,1.04268293 L19.1219512,0.710365854 C20.8932927,2.46341463 22.1280488,4.75914634 22.5609756,7.32621951 Z M1.57012195,19.5609756 L2.7347561,19.5823171 C3.02439024,19.5884146 3.29573171,19.4969512 3.5152439,19.3384146 C2.24390244,18.4420732 1.1554878,17.3109756 0.304878049,16.0030488 L0.304878049,18.2713415 C0.304878049,18.5091463 0.368902439,18.7317073 0.481707317,18.9237805 C0.588414634,19.0487805 0.695121951,19.1707317 0.804878049,19.2896341 C1.0152439,19.4542683 1.2804878,19.554878 1.57012195,19.5609756 Z M21.1585366,16.6707317 C21.8902439,16.7987805 22.5609756,16.2347561 22.5609756,15.4939024 L22.5609756,11.4085366 C22.2408537,13.3018293 21.4878049,15.0487805 20.3993902,16.5396341 L21.1585366,16.6707317 Z" id="形状" fill="#FF556E"></path>
                <path d="M20.5152439,8.79268293 C20.5152439,11.6189024 19.3993902,14.1829268 17.5853659,16.070122 C17.929878,16.1128049 18.2743902,16.1646341 18.6158537,16.222561 L20.402439,16.5365854 C21.4878049,15.0457317 22.2439024,13.2987805 22.5640244,11.4054878 L22.5640244,7.32621951 C22.1310976,4.75914634 20.8963415,2.46341463 19.1280488,0.707317073 L18.6219512,0.618902439 C17.8414634,0.481707317 17.0518293,0.390243902 16.2621951,0.347560976 C18.8384146,2.25914634 20.5152439,5.33231707 20.5152439,8.79268293 L20.5152439,8.79268293 Z M3.51219512,19.3353659 C3.83231707,19.1036585 4.04268293,18.7256098 4.04573171,18.2957317 L4.04878049,17.445122 C2.39329268,16.304878 1.08231707,14.7012195 0.301829268,12.820122 L0.301829268,16 C1.15243902,17.3079268 2.24390244,18.4390244 3.51219512,19.3353659 L3.51219512,19.3353659 Z M3.375,0.646341463 L2.24085366,0.426829268 C1.5037023,1.11193151 0.853507316,1.88499798 0.304878049,2.72865854 L0.304878049,4.76219512 C0.975609756,3.14634146 2.03963415,1.7347561 3.375,0.646341463 L3.375,0.646341463 Z" id="形状" fill="#FF5F71"></path>
                <path d="M18.2926829,8.2195122 C18.2926829,11.5640244 16.4268293,14.4756098 13.6829268,15.9695122 C14.9847561,15.8780488 16.2896341,15.9115854 17.5853659,16.070122 C19.3993902,14.1829268 20.5152439,11.6189024 20.5152439,8.79268293 C20.5152439,5.33231707 18.8414634,2.25914634 16.2591463,0.347560976 C15.3414634,0.295731707 14.4237805,0.304878049 13.5060976,0.37804878 C16.347561,1.83841463 18.2926829,4.80182927 18.2926829,8.2195122 L18.2926829,8.2195122 Z M4.05182927,17.4481707 L4.05487805,16.7073171 C4.05487805,16.445122 4.29268293,16.2469512 4.55182927,16.2896341 C5.19817073,16.3963415 5.8445122,16.472561 6.49695122,16.5182927 C3.09756098,15.2957317 0.664634146,12.0426829 0.664634146,8.22256098 C0.664634146,5.1554878 2.23170732,2.45426829 4.6097561,0.875 C4.42682927,0.847560976 4.24085366,0.81402439 4.05792683,0.780487805 L3.375,0.649390244 C2.03963415,1.73780488 0.975609756,3.15243902 0.301829268,4.76829268 L0.301829268,12.8262195 C1.08536585,14.7012195 2.39634146,16.304878 4.05182927,17.4481707 L4.05182927,17.4481707 Z" id="形状" fill="#FF6974"></path>
                <path d="M0.664634146,8.2195122 C0.664634146,12.0396341 3.09756098,15.2926829 6.49695122,16.5152439 C8.16768293,16.6310976 9.84756098,16.5396341 11.5,16.2408537 C12.222561,16.1097561 12.9512195,16.0182927 13.6829268,15.9695122 C16.429878,14.4756098 18.2926829,11.5670732 18.2926829,8.2195122 C18.2926829,4.80182927 16.347561,1.83841463 13.5060976,0.37804878 C12.8353659,0.429878049 12.1646341,0.518292683 11.5,0.637195122 C11.2591463,0.679878049 11.0182927,0.722560976 10.7743902,0.759146341 C13.8231707,1.56707317 16.0731707,4.3445122 16.0731707,7.64634146 C16.0731707,11.5823171 12.8841463,14.7713415 8.94817073,14.7713415 C5.01219512,14.7713415 1.82317073,11.5823171 1.82317073,7.64634146 C1.82317073,4.6554878 3.66768293,2.0945122 6.2804878,1.03963415 C5.72256098,1.01219512 5.16463415,0.957317073 4.6097561,0.87195122 C2.23170732,2.45121951 0.664634146,5.15243902 0.664634146,8.2195122 Z" id="路径" fill="#FF7377"></path>
                <path d="M1.82317073,7.64634146 C1.82317073,11.5823171 5.01219512,14.7713415 8.94817073,14.7713415 C12.8841463,14.7713415 16.0731707,11.5823171 16.0731707,7.64634146 C16.0731707,4.3445122 13.8262195,1.56402439 10.7743902,0.759146341 C9.28353659,0.990853659 7.77743902,1.11280488 6.2804878,1.03963415 C3.66768293,2.0945122 1.82317073,4.6554878 1.82317073,7.64634146 L1.82317073,7.64634146 Z M8.42073171,1.6402439 C11.4207317,1.6402439 13.8536585,4.07317073 13.8536585,7.07317073 C13.8536585,10.0731707 11.4207317,12.5060976 8.42073171,12.5060976 C5.42073171,12.5060976 2.98780488,10.0731707 2.98780488,7.07317073 C2.98780488,4.07317073 5.42073171,1.6402439 8.42073171,1.6402439 Z" id="形状" fill="#FF7E7A"></path>
                <path d="M8.42073171,12.5060976 C11.4207317,12.5060976 13.8536585,10.0731707 13.8536585,7.07317073 C13.8536585,4.07317073 11.4207317,1.6402439 8.42073171,1.6402439 C5.42073171,1.6402439 2.98780488,4.07317073 2.98780488,7.07317073 C2.98780488,10.0731707 5.42073171,12.5060976 8.42073171,12.5060976 Z M7.8902439,2.75609756 C9.95731707,2.75609756 11.6341463,4.43292683 11.6341463,6.5 C11.6341463,8.56707317 9.95731707,10.2439024 7.8902439,10.2439024 C5.82317073,10.2439024 4.14634146,8.56707317 4.14634146,6.5 C4.14634146,4.43292683 5.82317073,2.75609756 7.8902439,2.75609756 L7.8902439,2.75609756 Z" id="形状" fill="#FF887D"></path>
                <path d="M4.14634146,6.5 C4.14634146,8.56770022 5.82254368,10.2439024 7.8902439,10.2439024 C9.95794412,10.2439024 11.6341463,8.56770022 11.6341463,6.5 C11.6341463,4.43229978 9.95794412,2.75609756 7.8902439,2.75609756 C5.82254368,2.75609756 4.14634146,4.43229978 4.14634146,6.5 Z" id="路径" fill="#FF9280"></path>
                <path d="M2.75609756,19.8567073 L2.72560976,19.8567073 L1.56097561,19.8353659 C0.713414634,19.820122 0.0243902439,19.1189024 0.0243902439,18.2713415 L0.0243902439,1.44512195 C0.0243902439,1.01829268 0.213414634,0.62195122 0.539634146,0.350609756 C0.865853659,0.0792682927 1.29573171,-0.0304878049 1.71341463,0.0518292683 L4.10365854,0.512195122 C6.24085366,0.923780488 8.6402439,0.87804878 11.445122,0.37195122 C13.8384146,-0.0609756098 16.2652439,-0.0640243902 18.6585366,0.353658537 L21.0670732,0.777439024 C22.0884146,0.957317073 22.8292683,1.83841463 22.8292683,2.875 L22.8292683,15.4969512 C22.8292683,15.9329268 22.6371951,16.3414634 22.304878,16.6219512 C21.972561,16.902439 21.5335366,17.0182927 21.1036585,16.945122 L18.5670732,16.4939024 C16.2378049,16.0853659 13.875,16.0914634 11.5457317,16.5121951 C9.21341463,16.9329268 6.8445122,16.9481707 4.50304878,16.5579268 C4.44207317,16.5487805 4.39939024,16.5762195 4.38109756,16.5914634 C4.3597561,16.6097561 4.32621951,16.6463415 4.32621951,16.7073171 L4.31707317,18.2987805 C4.31402439,18.7195122 4.14634146,19.1158537 3.8445122,19.4085366 C3.55487805,19.6981707 3.16768293,19.8567073 2.75609756,19.8567073 L2.75609756,19.8567073 Z M1.44817073,0.570121951 C1.24695122,0.570121951 1.05182927,0.640243902 0.893292683,0.771341463 C0.692073171,0.93902439 0.576219512,1.18292683 0.576219512,1.44512195 L0.576219512,18.2713415 C0.576219512,18.820122 1.02439024,19.277439 1.57317073,19.2865854 L2.73780488,19.3079268 C3.01219512,19.3140244 3.27134146,19.2103659 3.46646341,19.0182927 C3.66158537,18.8262195 3.77134146,18.570122 3.77134146,18.2957317 L3.7804878,16.7042683 C3.7804878,16.4969512 3.87195122,16.304878 4.0304878,16.1707317 C4.18902439,16.0396341 4.39329268,15.9817073 4.59756098,16.0152439 C6.875,16.3932927 9.17987805,16.3780488 11.4512195,15.9695122 C13.8445122,15.5365854 16.2713415,15.5335366 18.6646341,15.9512195 L21.2073171,16.3963415 C21.4756098,16.445122 21.75,16.3689024 21.9603659,16.195122 C22.1707317,16.0213415 22.2896341,15.7621951 22.2896341,15.4878049 L22.2896341,2.86585366 C22.2896341,2.09756098 21.7408537,1.44207317 20.9817073,1.30792683 L18.5731707,0.884146341 C16.2439024,0.475609756 13.8810976,0.481707317 11.5518293,0.902439024 C8.67987805,1.42073171 6.21341463,1.46646341 4.00914634,1.04268293 L1.61585366,0.588414634 C1.55792683,0.576219512 1.50304878,0.570121951 1.44817073,0.570121951 Z" id="形状" fill="#EF4868"></path>
                <path d="M2.45121951,18.4085366 L1.96036585,18.4085366 C1.58536585,18.4085366 1.2804878,18.1036585 1.2804878,17.7286585 L1.2804878,2.19207317 C1.2804878,1.81707317 1.58536585,1.51219512 1.96036585,1.51219512 L2.45121951,1.51219512 C2.82621951,1.51219512 3.13109756,1.81707317 3.13109756,2.19207317 L3.13109756,17.7286585 C3.13109756,18.1067073 2.82621951,18.4085366 2.45121951,18.4085366 L2.45121951,18.4085366 Z" id="路径" fill="#FFC7C7"></path>
                <path d="M7.70426829,3.34756098 C7.10060976,3.34756098 6.74085366,3.30487805 6.71036585,3.29878049 C6.40853659,3.26219512 6.19817073,2.98780488 6.2347561,2.68596906 C6.27134146,2.38414634 6.54573171,2.17378049 6.84756098,2.21036585 C7.29878049,2.2652439 8.53963415,2.30182927 10.0182927,2.03963415 C12.0365854,1.67987805 13.1219512,1.68596906 13.1676829,1.68596906 C13.4695122,1.68902439 13.7134146,1.93597561 13.7103941,2.24085366 C13.7073171,2.54268293 13.4634146,2.78353659 13.1615854,2.78353659 L13.1554878,2.78353659 C13.1463415,2.78353659 12.1128049,2.7804878 10.2073171,3.11890244 C9.18597561,3.30182927 8.31707317,3.34756098 7.70426829,3.34756098 L7.70426829,3.34756098 Z M4.92378049,3.10060976 C4.90243902,3.10060976 4.87804878,3.10060976 4.85670732,3.09756098 L4.32317073,3.0304878 C4.02134146,2.99390244 3.80792683,2.7195122 3.84756098,2.41768293 C3.88414634,2.11585366 4.15853659,1.90243902 4.46036585,1.94207317 L4.99390244,2.00914634 C5.29573171,2.04573171 5.50914634,2.32012195 5.4695122,2.62195122 C5.43292683,2.89634146 5.19512195,3.10060976 4.92378049,3.10060976 L4.92378049,3.10060976 Z" id="形状" fill="#FFFFFF"></path>
            </g>
        </g>
    </g>
</svg>