<?xml version="1.0" encoding="UTF-8"?>
<svg width="23px" height="20px" viewBox="0 0 23 20" version="1.1" xmlns="http://www.w3.org/2000/svg" xmlns:xlink="http://www.w3.org/1999/xlink">
    <!-- Generator: Sketch 57.1 (83088) - https://sketch.com -->
    <g id="页面-1" stroke="none" stroke-width="1" fill="none" fill-rule="evenodd">
        <g id="DAO详情页_任务页" transform="translate(-380.000000, -876.000000)" fill-rule="nonzero">
            <g id="编组" transform="translate(380.000000, 876.000000)">
                <path d="M20.8533654,16.4302885 L18.3473558,15.9915865 C16.0276442,15.5859375 13.6508413,15.5919471 11.3341346,16.0096154 C9.06850962,16.4182692 6.75480769,16.4332933 4.48617788,16.0546875 C4.23076923,16.0126202 3.99939904,16.2079327 3.99639423,16.4663462 L3.98737981,18.0348558 C3.984375,18.7439904 3.40144231,19.311899 2.69230769,19.3000671 L1.54447115,19.2788462 C0.850360577,19.2668269 0.297475962,18.7019231 0.297475962,18.0078125 L0.297475962,1.42427885 C0.297475962,0.715144231 0.943509615,0.180288462 1.640625,0.315504808 L3.99639423,0.769230769 C6.41826923,1.23497596 8.90324519,1.06971154 11.3311298,0.631009615 C13.6508413,0.213341346 16.0246394,0.207331731 18.344351,0.612980769 L20.718149,1.03064904 C21.5925481,1.18389423 22.2325823,1.94411058 22.2325823,2.83052885 L22.2325823,15.2704327 C22.2355769,16.000601 21.5745192,16.5564904 20.8533654,16.4302885 Z" id="路径" fill="#FFA820"></path>
                <path d="M2.20853365,0.420673077 L1.64362981,0.3125 C1.40324519,0.267427885 1.171875,0.300480769 0.967548077,0.390625 C0.754206731,0.615985577 0.546875,0.850360577 0.348557692,1.09074519 C0.315504808,1.19591346 0.297475962,1.30709135 0.297475962,1.42427885 L0.297475962,2.69230769 C0.841346154,1.85697115 1.48137019,1.09375 2.20853365,0.420673077 L2.20853365,0.420673077 Z M22.2355769,7.22055288 L22.2355769,2.82752404 C22.2355769,1.93810096 21.5985577,1.18088942 20.7211538,1.02764423 L18.8461538,0.700120192 C20.5919471,2.42788462 21.8088942,4.69050481 22.2355769,7.22055288 Z M1.54747596,19.2788462 L2.6953125,19.2998798 C2.98076923,19.3058894 3.24819712,19.2157452 3.46454327,19.0594952 C2.21153846,18.1760817 1.13882212,17.0612981 0.300480769,15.7722356 L0.300480769,18.0078125 C0.300480769,18.2421875 0.363581731,18.4615385 0.474759615,18.6508413 C0.579927885,18.7740385 0.685096154,18.8942308 0.793269231,19.0114183 C1.00060096,19.1736779 1.26201923,19.2728365 1.54747596,19.2788462 Z M20.8533654,16.4302885 C21.5745192,16.5564904 22.2355769,16.000601 22.2355769,15.2704327 L22.2355769,11.2439904 C21.9200721,13.109976 21.1778846,14.8317308 20.1051683,16.3010817 L20.8533654,16.4302885 Z" id="形状" fill="#FEB133"></path>
                <path d="M20.219351,8.66586538 C20.219351,11.4513221 19.1195913,13.9783654 17.3317308,15.8383413 C17.671274,15.8804087 18.0108173,15.9314904 18.3473558,15.9885817 L20.1081731,16.2980769 C21.1778846,14.828726 21.9230769,13.1069712 22.2385817,11.2409856 L22.2385817,7.22055288 C21.811899,4.69050481 20.5949519,2.42788462 18.8521635,0.697115385 L18.3533654,0.609975962 C17.5841346,0.474759615 16.8058894,0.384615385 16.0276442,0.342548077 C18.5667067,2.2265625 20.219351,5.25540865 20.219351,8.66586538 L20.219351,8.66586538 Z M3.46153846,19.0564904 C3.77704327,18.828125 3.984375,18.4555288 3.98737981,18.031851 L3.99038462,17.1935096 C2.35877404,16.0697115 1.06670673,14.4891827 0.297475962,12.6352163 L0.297475962,15.7692308 C1.13581731,17.0582933 2.21153846,18.1730769 3.46153846,19.0564904 L3.46153846,19.0564904 Z M3.32632212,0.637019231 L2.20853365,0.420673077 C1.48201429,1.09589403 0.841197115,1.85781051 0.300480769,2.68930288 L0.300480769,4.69350962 C0.961538462,3.10096154 2.01021635,1.70973558 3.32632212,0.637019231 L3.32632212,0.637019231 Z" id="形状" fill="#FEB533"></path>
                <path d="M18.0288462,8.10096154 C18.0288462,11.3972356 16.1899038,14.2668269 13.4855769,15.7391827 C14.7686298,15.6490385 16.0546875,15.6820913 17.3317308,15.8383413 C19.1195913,13.9783654 20.219351,11.4513221 20.219351,8.66586538 C20.219351,5.25540865 18.5697115,2.2265625 16.0246394,0.342548077 C15.1201923,0.291466346 14.2157452,0.300480769 13.3112981,0.372596154 C16.1117788,1.81189904 18.0288462,4.73257212 18.0288462,8.10096154 L18.0288462,8.10096154 Z M3.99338942,17.1965144 L3.99639423,16.4663462 C3.99639423,16.2079327 4.23076923,16.0126202 4.48617788,16.0546875 C5.12319712,16.1598558 5.76021635,16.234976 6.40324519,16.2800481 C3.05288462,15.0751202 0.655048077,11.8689904 0.655048077,8.10396635 C0.655048077,5.08112981 2.19951923,2.41887019 4.54326923,0.862379808 C4.36298077,0.835336538 4.1796875,0.802283654 3.99939904,0.769230769 L3.32632212,0.640024038 C2.01021635,1.71274038 0.961538462,3.10697115 0.297475962,4.69951923 L0.297475962,12.641226 C1.06971154,14.4891827 2.36177885,16.0697115 3.99338942,17.1965144 L3.99338942,17.1965144 Z" id="形状" fill="#FEBA33"></path>
                <path d="M0.655048077,8.10096154 C0.655048077,11.8659856 3.05288462,15.0721154 6.40324519,16.2770433 C8.04987981,16.391226 9.70552885,16.3010817 11.3341346,16.0066106 C12.046274,15.8774038 12.7644231,15.7872596 13.4855769,15.7391827 C16.1929087,14.2668269 18.0288462,11.4002404 18.0288462,8.10096154 C18.0288462,4.73257212 16.1117788,1.81189904 13.3112981,0.372596154 C12.6502404,0.423677885 11.9891827,0.510817308 11.3341346,0.628004808 C11.0967548,0.670072115 10.859375,0.712139423 10.6189904,0.748197115 C13.6237981,1.54447115 15.8413462,4.28185096 15.8413462,7.53605769 C15.8413462,11.4152644 12.6983173,14.5582933 8.81911058,14.5582933 C4.93990385,14.5582933 1.796875,11.4152644 1.796875,7.53605769 C1.796875,4.58834135 3.61478365,2.06430288 6.18990385,1.02463942 C5.64002404,0.997596154 5.09014423,0.943509615 4.54326923,0.859375 C2.19951923,2.41586538 0.655048077,5.078125 0.655048077,8.10096154 Z" id="路径" fill="#FFBE34"></path>
                <path d="M1.796875,7.53605769 C1.796875,11.4152644 4.93990385,14.5582933 8.81911058,14.5582933 C12.6983173,14.5582933 15.8413462,11.4152644 15.8413462,7.53605769 C15.8413462,4.28185096 13.6268029,1.54146635 10.6189904,0.748197115 C9.14963942,0.9765625 7.66526442,1.09675481 6.18990385,1.02463942 C3.61478365,2.06430288 1.796875,4.58834135 1.796875,7.53605769 L1.796875,7.53605769 Z M8.29927885,1.61658654 C11.2560096,1.61658654 13.6538462,4.01442308 13.6538462,6.97115385 C13.6538462,9.92788462 11.2560096,12.3257212 8.29927885,12.3257212 C5.34254808,12.3257212 2.94471154,9.92788462 2.94471154,6.97115385 C2.94471154,4.01442308 5.34254808,1.61658654 8.29927885,1.61658654 Z" id="形状" fill="#FFC234"></path>
                <path d="M8.29927885,12.3257212 C11.2560096,12.3257212 13.6538462,9.92788462 13.6538462,6.97115385 C13.6538462,4.01442308 11.2560096,1.61658654 8.29927885,1.61658654 C5.34254808,1.61658654 2.94471154,4.01442308 2.94471154,6.97115385 C2.94471154,9.92788462 5.34254808,12.3257212 8.29927885,12.3257212 Z M7.77644231,2.71634615 C9.81370192,2.71634615 11.4663462,4.36899038 11.4663462,6.40625 C11.4663462,8.44350962 9.81370192,10.0961538 7.77644231,10.0961538 C5.73918269,10.0961538 4.08653846,8.44350962 4.08653846,6.40625 C4.08653846,4.36899038 5.73918269,2.71634615 7.77644231,2.71634615 L7.77644231,2.71634615 Z" id="形状" fill="#FFC734"></path>
                <path d="M4.08653846,6.40625 C4.08653846,8.44412762 5.73856469,10.0961538 7.77644231,10.0961538 C9.81431993,10.0961538 11.4663462,8.44412762 11.4663462,6.40625 C11.4663462,4.36837238 9.81431993,2.71634615 7.77644231,2.71634615 C5.73856469,2.71634615 4.08653846,4.36837238 4.08653846,6.40625 Z" id="路径" fill="#FFCB34"></path>
                <path d="M2.71634615,19.5703125 L2.68629808,19.5703125 L1.53846154,19.5492788 C0.703125,19.5342548 0.0240384615,18.843149 0.0240384615,18.0078125 L0.0240384615,1.42427885 C0.0240384615,1.00360577 0.210336538,0.612980769 0.531850962,0.345552885 C0.853365385,0.078125 1.27704327,-0.0300480769 1.68870192,0.0510817308 L4.04447115,0.504807692 C6.15084135,0.910456731 8.515625,0.865384615 11.2800481,0.366586538 C13.6388221,-0.0600961538 16.030649,-0.0631009615 18.3894231,0.348557692 L20.7632212,0.766225962 C21.7698317,0.943509615 22.5,1.81189904 22.5,2.83353365 L22.5,15.2734375 C22.5,15.703125 22.3106971,16.1057692 21.9831731,16.3822115 C21.655649,16.6586538 21.2229567,16.7728365 20.7992788,16.7007212 L18.2992788,16.2560096 C16.0036058,15.8533654 13.6748798,15.859375 11.3792067,16.2740385 C9.08052885,16.6887019 6.74579327,16.703726 4.43810096,16.3191106 C4.37800481,16.3100962 4.3359375,16.3371394 4.31790865,16.3521635 C4.296875,16.3701923 4.26382212,16.40625 4.26382212,16.4663462 L4.25480769,18.0348558 C4.25180288,18.4495192 4.08653846,18.8401442 3.7890625,19.1286058 C3.50360577,19.4140625 3.12199519,19.5703125 2.71634615,19.5703125 L2.71634615,19.5703125 Z M1.42728365,0.561899038 C1.22896635,0.561899038 1.03665865,0.631009615 0.880408654,0.760216346 C0.682091346,0.925480769 0.567908654,1.16586538 0.567908654,1.42427885 L0.567908654,18.0078125 C0.567908654,18.5486779 1.00961538,18.999399 1.55048077,19.0084135 L2.69831731,19.0294471 C2.96875,19.0354567 3.22415865,18.9332933 3.41646635,18.7439904 C3.60877404,18.5546875 3.71694712,18.3022837 3.71694712,18.031851 L3.72596154,16.4633413 C3.72596154,16.2590144 3.81610577,16.0697115 3.97235577,15.9375 C4.12860577,15.8082933 4.32992788,15.7512019 4.53125,15.7842548 C6.77584135,16.156851 9.04747596,16.1418269 11.2860577,15.7391827 C13.6448317,15.3125 16.0366587,15.3094952 18.3954327,15.7211538 L20.9014423,16.1598558 C21.1658654,16.2079327 21.4362981,16.1328125 21.6436298,15.9615385 C21.8509615,15.7902644 21.968149,15.5348558 21.968149,15.2644231 L21.968149,2.82451923 C21.968149,2.06730769 21.4272837,1.42127404 20.6790865,1.2890625 L18.3052885,0.871394231 C16.0096154,0.46875 13.6808894,0.474759615 11.3852163,0.889423077 C8.5546875,1.40024038 6.12379808,1.4453125 3.95132212,1.02764423 L1.59254808,0.579927885 C1.53545673,0.567908654 1.48137019,0.561899038 1.42728365,0.561899038 Z" id="形状" fill="#FFA820"></path>
                <path d="M2.41586538,18.1430288 L1.93209135,18.1430288 C1.5625,18.1430288 1.26201923,17.8425481 1.26201923,17.4729567 L1.26201923,2.16045673 C1.26201923,1.79086538 1.5625,1.49038462 1.93209135,1.49038462 L2.41586538,1.49038462 C2.78545673,1.49038462 3.0859375,1.79086538 3.0859375,2.16045673 L3.0859375,17.4729567 C3.0859375,17.8455529 2.78545673,18.1430288 2.41586538,18.1430288 L2.41586538,18.1430288 Z" id="路径" fill="#FFE3B4"></path>
                <path d="M7.59314904,3.29927885 C6.99819712,3.29927885 6.64362981,3.25721154 6.61358173,3.25120192 C6.31610577,3.21514423 6.10877404,2.94471154 6.14483173,2.64723558 C6.18088942,2.34975962 6.45132212,2.14242788 6.74879808,2.17848558 C7.19350962,2.23257212 8.41646635,2.26862981 9.87379808,2.01021635 C11.8629808,1.65564904 12.9326923,1.66165219 12.9777644,1.66165219 C13.2752404,1.66466346 13.515625,1.90805288 13.5126481,2.20853365 C13.5096154,2.50600962 13.2692308,2.74338942 12.9717548,2.74338942 L12.9657452,2.74338942 C12.9567308,2.74338942 11.938101,2.74038462 10.0600962,3.07391827 C9.05348558,3.25420673 8.19711538,3.29927885 7.59314904,3.29927885 L7.59314904,3.29927885 Z M4.85276442,3.05588942 C4.83173077,3.05588942 4.80769231,3.05588942 4.78665865,3.05288462 L4.26081731,2.98677885 C3.96334135,2.95072115 3.75300481,2.68028846 3.79206731,2.3828125 C3.828125,2.08533654 4.09855769,1.875 4.39603365,1.9140625 L4.921875,1.98016827 C5.21935096,2.01622596 5.4296875,2.28665865 5.390625,2.58413462 C5.35456731,2.85456731 5.12019231,3.05588942 4.85276442,3.05588942 L4.85276442,3.05588942 Z" id="形状" fill="#FFFFFF"></path>
            </g>
        </g>
    </g>
</svg>